<?xml version="1.0" standalone="no"?>
<!DOCTYPE svg PUBLIC "-//W3C//DTD SVG 20010904//EN"
 "http://www.w3.org/TR/2001/REC-SVG-20010904/DTD/svg10.dtd">
<svg version="1.0" xmlns="http://www.w3.org/2000/svg"
 width="1980.000000pt" height="373.000000pt" viewBox="0 0 1980.000000 373.000000"
 preserveAspectRatio="xMidYMid meet">

<g transform="translate(0.000000,373.000000) scale(0.100000,-0.100000)"
fill="#ffffff" stroke="none">
<path d="M11870 3110 l0 -70 -65 0 -65 0 0 -35 0 -35 65 0 65 0 0 -80 0 -80
-85 0 -85 0 0 -30 0 -30 330 0 330 0 0 30 0 30 -80 0 -80 0 0 80 0 80 60 0 60
0 0 35 0 35 -60 0 -60 0 0 70 0 70 -35 0 -35 0 0 -70 0 -70 -95 0 -95 0 0 70
0 70 -35 0 -35 0 0 -70z m260 -220 l0 -80 -95 0 -95 0 0 80 0 80 95 0 95 0 0
-80z"/>
<path d="M12735 3150 l-7 -30 -99 0 -99 0 0 -35 0 -35 80 0 c44 0 80 -2 80 -5
0 -29 -150 -235 -171 -235 -16 0 -10 -26 11 -45 20 -18 21 -18 45 5 l25 23 0
-141 0 -142 35 0 35 0 0 186 0 185 29 42 c15 23 38 61 50 85 l21 42 195 0 195
0 0 35 0 35 -181 0 -181 0 7 30 c6 29 5 30 -28 30 -31 0 -36 -4 -42 -30z"/>
<path d="M13480 3110 l0 -70 -65 0 -65 0 0 -35 0 -35 65 0 65 0 0 -80 0 -80
-80 0 -80 0 0 -30 0 -30 325 0 325 0 0 30 0 30 -80 0 -80 0 0 80 0 80 60 0 60
0 0 35 0 35 -60 0 -60 0 0 70 0 70 -35 0 -35 0 0 -70 0 -70 -95 0 -95 0 0 70
0 70 -35 0 -35 0 0 -70z m260 -220 l0 -80 -95 0 -95 0 0 80 0 80 95 0 95 0 0
-80z"/>
<path d="M14598 3115 c-18 -37 -38 -69 -44 -72 -6 -2 -33 -3 -60 -1 -49 3 -49
3 -22 17 l28 14 -27 49 c-28 52 -30 53 -66 37 l-24 -11 29 -54 30 -54 -79 0
c-67 1 -76 3 -60 14 22 17 22 17 -10 70 -27 44 -27 44 -56 30 l-28 -15 25 -44
c14 -24 26 -46 26 -49 0 -3 -27 -6 -60 -6 l-60 0 0 -80 0 -80 35 0 35 0 0 50
0 50 240 0 240 0 0 -50 0 -50 35 0 35 0 0 80 0 80 -60 0 c-33 0 -60 2 -60 5 0
3 14 29 30 59 28 48 29 54 13 59 -10 2 -26 8 -35 12 -14 5 -24 -7 -50 -60z"/>
<path d="M17634 3158 c-35 -39 -164 -137 -229 -173 -36 -20 -65 -39 -65 -41 0
-3 7 -18 16 -35 l15 -30 37 22 c85 52 131 86 198 151 l70 68 50 -51 c49 -51
147 -126 216 -168 l37 -22 17 33 c16 31 16 33 -1 43 -78 44 -199 132 -240 174
-56 57 -90 65 -121 29z"/>
<path d="M18380 3130 c0 -47 -2 -50 -25 -50 -20 0 -29 9 -46 44 -20 43 -22 44
-50 34 -33 -11 -34 -15 -14 -42 23 -31 18 -36 -35 -36 -49 0 -50 -1 -50 -30
l0 -29 98 -4 c64 -2 90 -6 75 -11 -21 -8 -21 -9 -6 -32 l15 -24 -71 0 -71 0 0
-30 0 -30 125 0 c118 0 125 -1 125 -20 0 -19 -7 -20 -110 -20 l-110 0 0 -30 0
-30 110 0 c103 0 110 -1 110 -20 0 -19 -7 -20 -145 -20 l-145 0 0 -30 0 -30
145 0 145 0 0 -90 0 -90 35 0 35 0 0 90 0 90 140 0 140 0 0 30 0 30 -140 0
c-133 0 -140 1 -140 20 0 19 7 20 105 20 l105 0 0 30 0 30 -105 0 c-98 0 -105
1 -105 20 0 19 7 20 125 20 l125 0 0 30 0 30 -70 0 c-64 0 -86 9 -60 25 16 10
11 22 -12 31 -16 5 9 9 75 11 l97 4 0 29 c0 29 -1 30 -51 30 l-50 0 20 29 c27
37 27 37 -9 50 -30 10 -31 9 -52 -34 -18 -37 -27 -45 -50 -45 -27 0 -28 2 -28
50 l0 50 -35 0 -35 0 0 -50 c0 -49 -1 -50 -30 -50 -29 0 -30 1 -30 50 l0 50
-35 0 -35 0 0 -50z m200 -123 c0 -7 -7 -23 -16 -35 -13 -19 -24 -22 -84 -22
-67 0 -70 1 -85 30 -8 16 -15 31 -15 35 0 3 45 5 100 5 74 0 100 -3 100 -13z"/>
<path d="M15997 3158 c-30 -11 -29 -9 -10 -70 4 -15 -1 -18 -38 -18 -24 0 -68
-3 -96 -6 -51 -7 -53 -8 -53 -37 l0 -30 114 7 115 7 15 -30 c9 -16 16 -32 16
-36 0 -3 -65 -5 -145 -5 l-145 0 0 -36 0 -36 166 7 165 8 29 -34 c16 -19 29
-37 30 -40 0 -4 -23 0 -51 8 -65 19 -181 14 -232 -11 -72 -35 -89 -120 -37
-180 51 -58 167 -84 317 -71 l84 7 -3 30 -3 30 -122 -1 c-129 -2 -191 9 -219
40 -22 24 -14 68 18 92 41 30 161 27 257 -8 l74 -27 20 20 20 21 -42 48 c-24
26 -47 55 -52 64 -9 18 1 22 114 35 54 6 58 8 53 28 -3 11 -6 26 -6 33 0 6 -8
9 -17 7 -10 -2 -56 -8 -103 -14 -80 -9 -86 -8 -102 12 -34 39 -24 45 78 53
l95 7 -3 31 c-3 27 -7 32 -28 30 -14 0 -65 -4 -115 -8 l-90 -7 -20 45 c-19 43
-21 44 -48 35z"/>
<path d="M16683 3113 c-29 -4 -33 -8 -33 -34 l0 -30 148 6 c122 5 144 4 131
-7 -267 -220 -329 -272 -329 -278 0 -4 8 -14 18 -23 17 -15 22 -14 75 24 77
55 150 79 237 79 105 0 139 -24 140 -97 0 -30 -7 -50 -26 -72 -14 -17 -31 -31
-37 -31 -7 0 -21 17 -32 37 -52 96 -185 118 -249 42 -33 -39 -33 -79 0 -118
33 -39 89 -54 179 -49 80 5 147 32 189 74 36 36 46 63 46 121 0 96 -73 156
-190 156 -36 -1 -78 -6 -93 -12 -44 -17 -25 2 93 93 105 80 108 84 94 105 -14
20 -22 21 -172 19 -86 0 -172 -3 -189 -5z m222 -435 c40 -47 34 -58 -33 -58
-67 0 -105 20 -100 53 7 51 92 54 133 5z"/>
<path d="M15320 3094 c-14 -2 -98 -8 -186 -15 -89 -6 -166 -14 -172 -18 -13
-8 -3 -61 12 -61 6 0 74 7 151 15 77 8 146 15 153 15 7 0 -16 -28 -51 -62 -49
-48 -68 -76 -82 -117 -33 -99 -3 -188 81 -237 54 -32 134 -54 195 -54 44 0 47
2 51 29 4 28 4 28 -71 40 -131 20 -197 74 -195 159 1 58 29 115 85 171 58 58
82 68 177 76 82 8 82 8 82 36 l0 29 -102 -1 c-57 -1 -114 -3 -128 -5z"/>
<path d="M15482 2981 c-11 -6 -6 -18 19 -55 36 -50 41 -53 59 -31 9 11 5 22
-27 55 -26 28 -42 37 -51 31z"/>
<path d="M17660 2790 l0 -190 -60 0 -60 0 0 140 0 140 -35 0 -35 0 0 -140 0
-140 -50 0 -50 0 0 -35 0 -35 305 0 305 0 0 35 0 35 -125 0 -125 0 0 80 0 80
95 0 95 0 0 35 0 35 -95 0 -95 0 0 75 0 75 -35 0 -35 0 0 -190z"/>
<path d="M12780 2940 l0 -30 125 0 c69 0 125 -3 125 -7 0 -5 -23 -23 -50 -42
-40 -28 -50 -40 -50 -63 l0 -28 -105 0 -105 0 0 -35 0 -35 105 0 105 0 0 -49
c0 -64 -19 -85 -72 -78 -40 5 -43 1 -32 -40 5 -20 13 -23 55 -23 94 0 119 30
119 143 l0 47 85 0 85 0 0 35 0 35 -85 0 c-76 0 -85 2 -85 18 0 11 25 38 60
65 53 42 60 51 60 82 l0 35 -170 0 -170 0 0 -30z"/>
<path d="M14410 2890 l0 -50 -115 0 -115 0 0 -35 0 -35 85 0 c49 0 85 -4 85
-10 0 -15 -106 -95 -166 -125 -30 -15 -54 -30 -54 -34 0 -3 9 -17 19 -30 l18
-24 49 29 c27 15 82 60 122 100 l72 72 0 -119 0 -119 40 0 40 0 0 119 0 118
73 -72 c41 -40 95 -85 122 -100 l47 -28 19 24 c10 13 19 26 19 29 0 3 -24 17
-53 32 -60 32 -167 114 -167 128 0 6 38 10 90 10 l90 0 0 35 0 35 -120 0 -120
0 0 50 0 50 -40 0 -40 0 0 -50z"/>
<path d="M15411 2931 c-15 -10 -10 -20 38 -81 18 -23 21 -24 36 -9 14 14 12
19 -22 57 -28 31 -42 40 -52 33z"/>
<path d="M13739 2704 c-20 -21 -21 -27 -9 -34 25 -14 93 -69 141 -115 l46 -44
27 28 28 29 -69 54 c-37 30 -84 67 -104 81 l-36 27 -24 -26z"/>
<path d="M11866 2680 c-27 -22 -73 -55 -102 -73 -29 -17 -53 -34 -53 -37 0 -3
10 -17 22 -33 l23 -27 60 41 c32 22 80 61 106 86 l47 46 -24 19 c-13 10 -25
18 -27 18 -2 0 -25 -18 -52 -40z"/>
<path d="M12125 2700 c-10 -11 -16 -21 -14 -23 31 -21 114 -90 149 -124 l46
-43 27 28 27 28 -62 50 c-95 76 -134 104 -145 104 -5 0 -18 -9 -28 -20z"/>
<path d="M13479 2680 c-26 -22 -72 -55 -102 -74 l-56 -33 23 -31 22 -31 65 43
c35 24 84 64 107 89 l44 45 -23 16 c-13 9 -26 16 -29 16 -3 -1 -26 -19 -51
-40z"/>
<path d="M18295 2645 c-17 -13 -51 -34 -76 -47 l-46 -25 22 -27 21 -26 60 38
c32 22 67 48 77 59 17 20 17 21 -5 35 -21 14 -26 13 -53 -7z"/>
<path d="M18615 2650 c-10 -11 -16 -22 -14 -23 2 -2 35 -25 72 -51 66 -46 69
-47 88 -30 10 9 19 21 19 25 0 7 -132 99 -142 99 -3 0 -13 -9 -23 -20z"/>
<path d="M9881 2261 c-11 -7 -7 -18 20 -52 19 -24 35 -46 37 -48 1 -3 10 2 19
11 15 15 13 20 -16 57 -35 44 -38 46 -60 32z"/>
<path d="M16331 2261 c-11 -7 -7 -18 20 -52 19 -24 35 -46 37 -48 1 -3 10 2
19 11 15 15 13 20 -16 57 -35 44 -38 46 -60 32z"/>
<path d="M6200 2230 l0 -30 -60 0 -60 0 0 -30 0 -30 60 0 60 0 0 -30 c0 -30
-1 -30 -55 -30 l-55 0 0 -110 0 -110 50 0 c28 0 50 -4 50 -8 0 -16 -61 -97
-100 -132 l-39 -35 20 -25 19 -25 28 30 c15 17 39 46 54 65 l27 35 1 -87 0
-88 30 0 30 0 0 92 0 92 45 -44 c43 -42 45 -43 60 -25 23 32 18 42 -45 87 -76
53 -77 68 -5 68 l55 0 0 110 0 110 -55 0 c-54 0 -55 0 -55 30 l0 30 60 0 60 0
0 30 0 30 -60 0 -60 0 0 30 c0 27 -3 30 -30 30 -27 0 -30 -3 -30 -30z m0 -255
c0 -52 -1 -55 -25 -55 -24 0 -25 3 -25 55 0 52 1 55 25 55 24 0 25 -3 25 -55z
m110 0 c0 -52 -1 -55 -25 -55 -24 0 -25 3 -25 55 0 52 1 55 25 55 24 0 25 -3
25 -55z"/>
<path d="M5362 2186 c-20 -56 -45 -103 -104 -196 -12 -19 -13 -33 -6 -60 l10
-35 29 35 28 35 1 -192 0 -193 35 0 35 0 0 248 0 247 31 74 c17 40 27 77 22
81 -4 5 -19 11 -33 15 -23 5 -27 1 -48 -59z"/>
<path d="M5647 2243 c-17 -4 -17 -13 0 -60 4 -10 -20 -13 -101 -13 l-106 0 0
-35 0 -35 240 0 240 0 0 35 0 35 -99 0 -99 0 -16 40 c-15 39 -22 43 -59 33z"/>
<path d="M7782 2186 c-20 -56 -45 -103 -104 -196 -12 -19 -13 -33 -6 -60 l10
-35 29 35 28 35 1 -192 0 -193 35 0 35 0 0 248 0 247 31 74 c17 40 27 77 22
81 -4 5 -19 11 -33 15 -23 5 -27 1 -48 -59z"/>
<path d="M8067 2243 c-17 -4 -17 -13 0 -60 4 -10 -20 -13 -101 -13 l-106 0 0
-35 0 -35 240 0 240 0 0 35 0 35 -99 0 -99 0 -16 40 c-15 39 -22 43 -59 33z"/>
<path d="M10230 2230 c0 -18 -7 -20 -60 -20 l-60 0 0 -30 0 -30 60 0 60 0 0
-115 0 -115 -65 0 -65 0 0 -30 0 -30 66 0 c47 0 65 -3 62 -12 -3 -9 -84 -56
-126 -74 -5 -2 21 -54 28 -54 3 0 27 14 53 30 26 17 50 30 52 30 3 0 5 -11 5
-25 0 -24 2 -25 75 -25 l75 0 0 -30 0 -30 -125 0 -125 0 0 -30 0 -30 280 0
280 0 0 30 0 30 -125 0 -125 0 0 30 0 30 70 0 c68 0 70 1 70 25 0 14 2 25 5
25 3 0 31 -14 62 -32 53 -30 56 -31 69 -13 22 30 17 39 -40 63 -30 13 -62 32
-72 43 -17 19 -15 19 54 19 l72 0 0 30 0 30 -70 0 -70 0 0 115 0 115 65 0 65
0 0 30 0 30 -65 0 c-58 0 -65 2 -65 20 0 16 -7 20 -30 20 -23 0 -30 -4 -30
-20 0 -19 -7 -20 -120 -20 -113 0 -120 1 -120 20 0 16 -7 20 -35 20 -28 0 -35
-4 -35 -20z m310 -105 l0 -25 -120 0 -120 0 0 25 0 25 120 0 120 0 0 -25z m0
-95 c0 -19 -7 -20 -120 -20 -113 0 -120 1 -120 20 0 19 7 20 120 20 113 0 120
-1 120 -20z m0 -90 c0 -19 -7 -20 -120 -20 -113 0 -120 1 -120 20 0 19 7 20
120 20 113 0 120 -1 120 -20z m23 -116 l29 -34 -71 0 c-69 0 -71 1 -71 25 0
21 -5 25 -30 25 -25 0 -30 -4 -30 -25 0 -24 -2 -25 -70 -25 l-71 0 28 35 28
35 115 -1 115 0 28 -35z"/>
<path d="M11220 2220 c0 -28 -3 -30 -35 -30 -31 0 -35 -3 -35 -25 0 -21 5 -25
30 -25 17 0 30 -4 30 -9 0 -12 -68 -99 -81 -103 -7 -2 -3 -13 9 -28 l19 -24
29 44 29 44 3 -52 c3 -48 5 -52 28 -52 22 0 24 4 24 51 0 44 2 50 15 39 8 -6
19 -9 25 -5 18 11 11 34 -15 51 -14 9 -25 23 -25 30 0 8 10 14 25 14 20 0 25
5 25 25 0 20 -5 25 -25 25 -21 0 -25 5 -25 30 0 25 -4 30 -25 30 -21 0 -25 -5
-25 -30z"/>
<path d="M11410 2220 c0 -27 -3 -30 -30 -30 -25 0 -30 -4 -30 -25 0 -20 5 -25
25 -25 14 0 25 -4 25 -8 0 -5 -18 -34 -40 -64 -39 -55 -39 -57 -22 -78 l18
-22 26 54 27 53 1 -57 c0 -58 0 -58 30 -58 29 0 30 2 30 43 l1 42 25 -30 c24
-29 25 -29 39 -10 14 18 12 22 -25 60 -51 52 -53 75 -5 75 31 0 35 3 35 25 0
22 -4 25 -35 25 -32 0 -35 2 -35 30 0 27 -3 30 -30 30 -27 0 -30 -3 -30 -30z"/>
<path d="M12800 2170 l0 -80 -65 0 -65 0 0 75 0 75 -35 0 -35 0 0 -75 0 -75
-45 0 c-45 0 -45 0 -45 -35 0 -35 0 -35 45 -35 l45 0 0 -205 0 -205 270 0 270
0 0 35 0 35 -235 0 -235 0 0 170 0 170 65 0 65 0 0 -115 0 -115 135 0 135 0 0
115 0 115 50 0 50 0 0 35 0 35 -50 0 -50 0 0 80 0 80 -35 0 -35 0 0 -80 0 -80
-65 0 -65 0 0 80 0 80 -35 0 -35 0 0 -80z m200 -230 l0 -80 -65 0 -65 0 0 80
0 80 65 0 65 0 0 -80z"/>
<path d="M15070 2240 c0 -6 -28 -10 -65 -10 -63 0 -65 -1 -65 -25 0 -24 2 -25
65 -25 37 0 65 -4 65 -10 0 -5 -25 -10 -55 -10 l-55 0 0 -75 0 -75 55 0 c30 0
55 -4 55 -10 0 -6 -28 -10 -65 -10 -63 0 -65 -1 -65 -25 0 -24 2 -25 65 -25
51 0 65 -3 65 -15 0 -10 10 -15 30 -15 20 0 30 5 30 15 0 12 14 15 65 15 63 0
65 1 65 25 0 24 -2 25 -65 25 -37 0 -65 4 -65 10 0 6 25 10 55 10 l55 0 0 75
0 75 -55 0 c-30 0 -55 5 -55 10 0 6 28 10 65 10 63 0 65 1 65 25 0 24 -2 25
-65 25 -37 0 -65 4 -65 10 0 6 -13 10 -30 10 -16 0 -30 -4 -30 -10z m0 -130
c0 -5 -11 -10 -25 -10 -14 0 -25 5 -25 10 0 6 11 10 25 10 14 0 25 -4 25 -10z
m110 0 c0 -5 -11 -10 -25 -10 -14 0 -25 5 -25 10 0 6 11 10 25 10 14 0 25 -4
25 -10z m-110 -50 c0 -5 -11 -10 -25 -10 -14 0 -25 5 -25 10 0 6 11 10 25 10
14 0 25 -4 25 -10z m110 0 c0 -5 -11 -10 -25 -10 -14 0 -25 5 -25 10 0 6 11
10 25 10 14 0 25 -4 25 -10z"/>
<path d="M17640 2241 c0 -14 -137 -124 -214 -171 -41 -25 -78 -48 -82 -52 -8
-8 22 -58 35 -58 20 0 165 104 230 165 l72 68 35 -41 c37 -43 174 -151 227
-178 29 -16 32 -16 49 6 26 32 23 44 -19 64 -62 30 -144 88 -209 149 -48 44
-69 57 -93 57 -17 0 -31 -4 -31 -9z"/>
<path d="M18380 2200 c0 -46 -2 -50 -25 -50 -19 0 -28 9 -44 45 -22 50 -20 49
-56 35 -25 -9 -25 -11 -10 -39 8 -17 15 -32 15 -36 0 -3 -22 -5 -50 -5 -49 0
-50 -1 -50 -30 l0 -30 98 -1 c76 0 92 -3 75 -11 -20 -10 -21 -12 -6 -34 l15
-24 -71 0 -71 0 0 -30 0 -30 125 0 c118 0 125 -1 125 -20 0 -19 -7 -20 -110
-20 l-110 0 0 -30 0 -30 110 0 c103 0 110 -1 110 -20 0 -19 -7 -20 -145 -20
l-145 0 0 -30 0 -30 145 0 145 0 0 -90 0 -90 35 0 35 0 0 90 0 90 140 0 140 0
0 30 0 30 -140 0 c-133 0 -140 1 -140 20 0 19 7 20 105 20 l105 0 0 30 0 30
-105 0 c-98 0 -105 1 -105 20 0 19 7 20 125 20 l125 0 0 30 0 30 -70 0 c-38 0
-70 3 -70 6 0 3 4 14 10 24 8 14 5 19 -13 26 -15 5 11 9 76 11 l97 4 0 29 c0
29 -1 30 -51 30 l-51 0 21 33 21 34 -27 12 c-30 14 -31 12 -65 -48 -12 -22
-24 -31 -43 -31 -23 0 -25 3 -25 50 l0 50 -35 0 -35 0 0 -50 c0 -49 -1 -50
-30 -50 -29 0 -30 1 -30 50 l0 50 -35 0 -35 0 0 -50z m200 -120 c0 -6 -7 -22
-16 -35 -15 -23 -23 -25 -85 -25 -66 0 -69 1 -84 30 -8 16 -15 31 -15 35 0 3
45 5 100 5 62 0 100 -4 100 -10z"/>
<path d="M15310 2216 c0 -13 -9 -35 -20 -49 -17 -22 -18 -26 -5 -37 19 -16 19
-30 0 -30 -22 0 -20 -50 3 -51 18 0 68 -56 59 -66 -3 -3 -21 -8 -38 -12 -38
-8 -45 -20 -25 -46 13 -18 15 -18 75 2 l61 21 67 -23 68 -23 12 26 c14 35 12
38 -37 46 -22 3 -40 9 -40 12 0 4 14 22 30 41 17 18 30 43 30 53 0 19 -7 20
-115 20 -63 0 -115 3 -115 6 0 3 11 19 25 36 14 16 25 36 25 44 0 10 12 14 39
14 35 0 39 -3 45 -30 6 -33 36 -50 87 -50 24 0 29 4 29 25 0 21 -5 25 -30 25
-28 0 -30 3 -30 35 l0 35 -100 0 c-98 0 -100 0 -100 -24z m137 -186 c-25 -20
-28 -20 -52 -4 -14 9 -25 18 -25 20 0 2 23 4 51 4 l52 0 -26 -20z"/>
<path d="M6400 2200 c0 -30 1 -30 55 -30 52 0 55 -1 55 -25 0 -23 -3 -25 -50
-25 l-50 0 0 -190 0 -190 140 0 140 0 0 190 0 190 -61 0 c-52 0 -60 2 -55 16
3 9 6 20 6 25 0 5 29 9 65 9 l65 0 0 30 0 30 -155 0 -155 0 0 -30z m220 -165
c0 -24 -2 -25 -70 -25 -68 0 -70 1 -70 25 0 24 2 25 70 25 68 0 70 -1 70 -25z
m0 -105 l0 -30 -70 0 -70 0 0 30 0 30 70 0 70 0 0 -30z m0 -110 l0 -30 -70 0
-70 0 0 30 0 30 70 0 70 0 0 -30z"/>
<path d="M8540 2048 c0 -212 -9 -288 -42 -360 l-24 -53 27 -23 27 -22 27 55
c14 30 31 80 37 110 l11 55 83 0 84 0 0 -100 0 -100 35 0 35 0 0 100 0 100 95
0 95 0 0 -58 c0 -78 -14 -95 -72 -91 l-45 4 10 -32 c10 -32 12 -33 68 -33 41
0 63 5 80 19 l24 19 3 296 3 296 -281 0 -280 0 0 -182z m230 57 l0 -55 -80 0
-80 0 0 55 0 55 80 0 80 0 0 -55z m260 0 l0 -55 -95 0 -95 0 0 55 0 55 95 0
95 0 0 -55z m-260 -170 l0 -55 -80 0 -80 0 0 55 0 55 80 0 80 0 0 -55z m260 0
l0 -55 -95 0 -95 0 0 55 0 55 95 0 95 0 0 -55z"/>
<path d="M9517 2213 c-3 -10 -11 -43 -18 -75 l-12 -56 -43 -6 c-24 -3 -65 -9
-90 -12 -34 -5 -44 -10 -40 -21 3 -8 6 -22 6 -32 0 -16 6 -17 65 -8 37 5 69 7
72 3 9 -8 -54 -180 -98 -268 -21 -42 -39 -81 -39 -86 0 -8 43 -32 56 -32 11 0
105 210 135 303 l32 97 38 0 c51 0 67 -8 84 -41 18 -34 20 -151 4 -215 -15
-60 -44 -79 -105 -69 -26 3 -52 9 -59 11 -14 6 -28 -46 -16 -58 4 -5 33 -13
64 -18 117 -22 179 39 196 193 19 164 -34 257 -146 257 -24 0 -43 3 -43 6 0 3
7 33 16 66 8 33 14 61 12 63 -2 1 -17 6 -35 9 -25 6 -32 4 -36 -11z"/>
<path d="M9801 2221 c-11 -7 -6 -18 25 -55 34 -41 40 -44 53 -31 13 13 11 19
-15 52 -34 41 -43 46 -63 34z"/>
<path d="M13390 2080 l0 -150 61 0 c39 0 58 -4 54 -10 -10 -16 -74 -54 -135
-79 -30 -13 -56 -25 -58 -26 -2 -2 4 -15 13 -29 16 -24 19 -25 49 -12 18 7 51
25 74 40 55 35 62 33 55 -11 -10 -66 -39 -111 -92 -141 l-49 -27 22 -26 c23
-26 23 -26 58 -8 76 39 115 103 133 217 7 41 6 42 -23 42 l-29 0 33 35 c29 32
38 35 86 35 49 0 58 -4 88 -35 31 -32 32 -35 12 -35 -22 0 -22 -2 -22 -140 l0
-140 35 0 35 0 0 125 c0 69 2 125 5 125 2 0 33 -16 68 -35 76 -42 90 -43 105
-10 13 28 17 24 -68 56 -33 13 -120 72 -120 82 0 4 27 7 60 7 l60 0 0 150 0
150 -255 0 -255 0 0 -150z m220 60 l0 -30 -75 0 -75 0 0 30 0 30 75 0 75 0 0
-30z m230 0 l0 -30 -80 0 -80 0 0 30 0 30 80 0 80 0 0 -30z m-230 -120 l0 -30
-75 0 -75 0 0 30 0 30 75 0 75 0 0 -30z m230 0 l0 -30 -80 0 -80 0 0 30 0 30
80 0 80 0 0 -30z"/>
<path d="M14343 2153 c3 -43 13 -99 21 -126 l14 -48 -39 -19 c-21 -11 -55 -34
-74 -52 -99 -87 -86 -206 27 -254 48 -19 267 -31 363 -19 48 6 55 9 55 28 0
12 -4 27 -8 32 -4 6 -77 10 -182 10 -193 0 -227 8 -244 57 -28 79 103 168 330
224 38 9 73 20 77 24 7 6 -4 41 -18 58 -2 2 -51 -10 -109 -27 -59 -17 -108
-31 -110 -31 -7 0 -25 86 -32 153 l-7 67 -35 0 -35 0 6 -77z"/>
<path d="M15967 2213 c-3 -10 -11 -43 -18 -75 l-12 -56 -43 -6 c-24 -3 -65 -9
-90 -12 -34 -5 -44 -10 -40 -21 3 -8 6 -22 6 -32 0 -16 6 -17 65 -8 37 5 69 7
72 3 9 -8 -54 -180 -98 -268 -21 -42 -39 -81 -39 -86 0 -8 43 -32 56 -32 11 0
105 210 135 303 l32 97 38 0 c51 0 67 -8 84 -41 18 -34 20 -151 4 -215 -15
-60 -44 -79 -105 -69 -26 3 -52 9 -59 11 -14 6 -28 -46 -16 -58 4 -5 33 -13
64 -18 117 -22 179 39 196 193 19 164 -34 257 -146 257 -24 0 -43 3 -43 6 0 3
7 33 16 66 8 33 14 61 12 63 -2 1 -17 6 -35 9 -25 6 -32 4 -36 -11z"/>
<path d="M16251 2221 c-11 -7 -6 -18 25 -55 34 -41 40 -44 53 -31 13 13 11 19
-15 52 -34 41 -43 46 -63 34z"/>
<path d="M10910 2190 c0 -27 3 -30 30 -30 17 0 30 -5 30 -12 -1 -31 -32 -143
-56 -200 -21 -49 -24 -66 -15 -85 12 -25 27 -30 34 -10 3 6 6 -45 6 -115 l1
-128 35 0 c31 0 35 3 35 25 0 24 3 25 55 25 l55 0 0 170 0 170 -61 0 c-59 0
-61 1 -55 23 3 12 11 48 18 80 l12 57 43 0 c41 0 43 1 43 30 l0 30 -105 0
-105 0 0 -30z m150 -360 l0 -110 -25 0 -25 0 0 110 0 110 25 0 25 0 0 -110z"/>
<path d="M11805 2198 c-46 -131 -50 -390 -9 -522 l17 -54 31 11 c17 5 32 11
34 12 1 1 -5 22 -15 46 -24 61 -25 355 -2 446 14 54 14 63 2 67 -25 10 -53 7
-58 -6z"/>
<path d="M16803 2193 l-153 -4 0 -35 0 -35 108 6 c59 3 124 8 145 11 20 2 37
2 37 -1 0 -3 -76 -68 -170 -146 -169 -140 -170 -140 -153 -163 l17 -22 54 38
c98 68 227 101 310 79 51 -14 72 -43 72 -99 0 -35 -6 -49 -29 -73 -35 -34 -47
-36 -56 -8 -13 39 -66 88 -107 100 -61 16 -112 3 -148 -37 -39 -45 -40 -86 -2
-124 92 -91 336 -47 398 72 18 35 18 111 -1 148 -34 66 -133 101 -231 82 -31
-7 -58 -11 -60 -9 -1 1 50 42 113 91 l114 88 -22 24 c-16 17 -32 23 -53 22
-17 -1 -100 -4 -183 -5z m76 -417 c25 -13 51 -52 51 -76 0 -14 -101 -12 -130
3 -31 16 -39 56 -14 74 23 17 58 17 93 -1z"/>
<path d="M12020 2133 l-86 -4 4 -36 5 -36 90 7 c49 3 132 6 184 6 l93 0 0 35
0 35 -102 -2 c-57 -1 -141 -4 -188 -5z"/>
<path d="M9783 2115 c-21 -15 -21 -15 23 -81 26 -38 54 -99 70 -148 l26 -84
33 11 33 10 -15 51 c-28 97 -115 256 -141 256 -4 0 -17 -7 -29 -15z"/>
<path d="M16233 2115 c-21 -15 -21 -15 23 -81 26 -38 54 -99 70 -148 l26 -84
33 11 33 10 -15 51 c-28 97 -115 256 -141 256 -4 0 -17 -7 -29 -15z"/>
<path d="M5510 2030 l0 -30 175 0 175 0 0 30 0 30 -175 0 -175 0 0 -30z"/>
<path d="M7930 2030 l0 -30 175 0 175 0 0 30 0 30 -175 0 -175 0 0 -30z"/>
<path d="M17660 1860 l0 -190 -60 0 -60 0 0 140 0 140 -35 0 -35 0 0 -140 0
-140 -50 0 c-49 0 -50 -1 -50 -30 l0 -30 305 0 305 0 0 30 0 30 -125 0 -125 0
0 80 0 80 95 0 95 0 0 35 0 35 -95 0 -95 0 0 75 0 75 -35 0 -35 0 0 -190z"/>
<path d="M7157 1952 c-22 -24 -21 -45 1 -65 27 -24 59 -21 78 8 15 23 15 27 0
50 -20 30 -56 33 -79 7z"/>
<path d="M5510 1920 l0 -30 175 0 175 0 0 30 0 30 -175 0 -175 0 0 -30z"/>
<path d="M7930 1920 l0 -30 175 0 175 0 0 30 0 30 -175 0 -175 0 0 -30z"/>
<path d="M11160 1900 l0 -30 75 0 75 0 0 -100 c0 -95 -1 -100 -19 -91 -34 19
-52 58 -45 100 5 34 3 40 -15 46 -29 9 -37 1 -45 -43 -3 -21 -18 -64 -34 -94
-27 -54 -27 -57 -10 -78 21 -26 27 -23 53 27 10 21 20 39 21 41 1 2 17 -13 36
-32 30 -33 40 -37 108 -46 41 -5 98 -10 127 -10 48 0 52 2 62 30 l10 30 -90 0
-89 0 0 40 0 40 55 0 c54 0 55 0 55 30 0 30 -1 30 -55 30 l-55 0 0 40 0 40 46
0 c44 0 45 -1 42 -27 -2 -24 1 -28 23 -31 22 -3 27 2 37 36 26 87 37 82 -178
82 l-190 0 0 -30z"/>
<path d="M15150 1899 c-30 -15 -71 -28 -91 -29 -34 0 -35 -2 -31 -30 l4 -30
72 -1 71 -1 -55 -18 c-30 -11 -77 -19 -104 -19 -45 -1 -48 -2 -42 -23 3 -13 6
-27 6 -32 0 -5 52 -6 125 -2 l125 6 0 -40 c0 -39 -1 -40 -35 -40 -31 0 -35 -3
-35 -25 0 -24 3 -25 54 -25 65 0 86 21 86 86 0 49 9 54 109 54 51 0 69 -4 86
-20 21 -20 22 -20 38 -2 16 17 14 21 -37 71 -50 49 -54 51 -79 40 -25 -11 -26
-14 -12 -29 14 -16 8 -17 -96 -24 -62 -3 -114 -5 -116 -2 -2 2 26 14 64 27 37
12 92 33 122 46 l55 24 -29 19 c-28 18 -29 18 -76 -6 -36 -18 -64 -24 -106
-23 l-58 0 43 20 c43 19 46 31 14 48 -12 6 -33 1 -72 -20z"/>
<path d="M11950 1864 c-46 -105 -12 -174 95 -200 64 -15 172 -18 249 -8 44 6
46 8 46 39 l0 32 -104 -5 c-124 -5 -187 3 -218 28 -24 19 -23 28 8 121 3 10
-4 19 -21 27 -35 16 -33 18 -55 -34z"/>
<path d="M5490 1710 l0 -130 35 0 c28 0 35 4 35 20 0 19 7 20 125 20 118 0
125 -1 125 -20 0 -16 7 -20 30 -20 l30 0 0 130 0 130 -190 0 -190 0 0 -130z
m320 20 l0 -50 -125 0 -125 0 0 50 0 50 125 0 125 0 0 -50z"/>
<path d="M7910 1710 l0 -130 35 0 c28 0 35 4 35 20 0 19 7 20 125 20 118 0
125 -1 125 -20 0 -16 7 -20 30 -20 l30 0 0 130 0 130 -190 0 -190 0 0 -130z
m320 20 l0 -50 -125 0 -125 0 0 50 0 50 125 0 125 0 0 -50z"/>
<path d="M18297 1719 c-15 -12 -49 -33 -76 -48 l-49 -26 23 -27 23 -26 53 35
c30 20 64 45 76 56 22 19 22 22 6 39 -20 22 -22 22 -56 -3z"/>
<path d="M18617 1722 c-17 -18 -15 -21 54 -71 68 -50 72 -51 90 -35 10 9 19
21 19 25 0 8 -108 85 -133 95 -7 2 -21 -4 -30 -14z"/>
<path d="M6433 1670 c-49 -45 -51 -49 -34 -64 26 -23 32 -21 84 32 l48 49 -23
15 c-22 15 -26 13 -75 -32z"/>
<path d="M6597 1702 c-16 -15 -13 -19 35 -64 49 -45 53 -47 70 -31 18 16 17
18 -19 56 -52 53 -66 60 -86 39z"/>
<path d="M15045 1675 c-38 -13 -78 -24 -87 -24 -21 -1 -23 -20 -5 -45 15 -21
34 -17 145 26 52 20 62 34 40 56 -14 14 -7 15 -93 -13z"/>
<path d="M15365 1677 c-8 -11 -13 -22 -12 -23 1 -2 43 -16 92 -33 l90 -30 17
22 c16 21 16 23 -6 34 -13 7 -55 21 -94 32 l-72 20 -15 -22z"/>
<path d="M11290 1312 c0 -9 -15 -49 -34 -88 l-34 -71 29 -17 29 -17 22 46 c29
60 59 62 88 6 19 -38 21 -39 50 -28 28 11 29 12 15 34 -8 12 -15 25 -15 28 0
3 27 5 60 5 l60 0 0 30 0 30 -106 0 c-101 0 -106 1 -101 20 6 22 3 24 -35 34
-23 5 -28 3 -28 -12z"/>
<path d="M11853 1322 c-37 -4 -37 -5 -23 -33 10 -18 7 -19 -45 -19 -54 0 -55
0 -55 -30 0 -25 4 -30 24 -30 18 0 25 -7 30 -31 11 -54 8 -59 -29 -59 l-35 0
0 -148 c0 -82 -5 -174 -11 -205 -11 -51 -10 -60 6 -77 10 -11 21 -20 25 -20
17 0 32 95 37 238 l6 152 123 0 124 0 0 30 c0 27 -3 30 -31 30 -31 0 -31 1
-24 37 8 46 12 53 31 53 9 0 14 11 14 30 0 30 -1 30 -55 30 -50 0 -56 2 -67
28 -11 23 -18 26 -45 24z m66 -149 c-5 -21 -9 -41 -9 -45 0 -5 -13 -8 -29 -8
-24 0 -29 5 -35 31 -11 56 -9 59 38 59 l44 0 -9 -37z"/>
<path d="M10952 1238 c-38 -75 -40 -82 -24 -94 28 -21 40 -16 64 26 30 52 52
51 79 -2 27 -54 23 -51 58 -43 l31 7 -20 39 -20 39 50 0 c49 0 50 1 50 30 l0
30 -90 0 c-78 0 -89 2 -83 16 6 17 -12 34 -38 34 -9 0 -31 -32 -57 -82z"/>
<path d="M13610 1261 c0 -32 -3 -73 -6 -90 l-6 -31 -139 0 -139 0 0 -35 0 -35
136 0 135 0 -7 -22 c-24 -79 -51 -135 -88 -185 -50 -67 -62 -79 -133 -125
l-52 -34 22 -28 22 -27 47 31 c99 65 184 177 235 309 8 21 12 17 45 -50 46
-92 115 -178 192 -238 l58 -46 19 24 c10 13 19 26 19 30 0 3 -29 27 -64 53
-87 64 -182 194 -210 286 l-7 22 135 0 136 0 0 35 0 35 -144 0 -145 0 6 90 6
90 -37 0 -36 0 0 -59z"/>
<path d="M17640 1311 c0 -14 -137 -124 -214 -171 -41 -25 -78 -48 -82 -52 -8
-8 22 -58 35 -58 20 0 165 104 230 165 l72 68 35 -41 c37 -43 174 -151 227
-178 29 -16 32 -16 49 6 26 32 23 44 -19 64 -62 30 -144 88 -209 149 -48 44
-69 57 -93 57 -17 0 -31 -4 -31 -9z"/>
<path d="M18380 1270 c0 -46 -2 -50 -25 -50 -19 0 -28 9 -44 45 -22 50 -20 49
-56 35 -25 -9 -25 -11 -10 -39 8 -17 15 -32 15 -36 0 -3 -22 -5 -50 -5 -49 0
-50 -1 -50 -30 l0 -30 98 -1 c76 0 92 -3 75 -11 -20 -10 -21 -12 -6 -34 l15
-24 -71 0 -71 0 0 -30 0 -30 125 0 c118 0 125 -1 125 -20 0 -19 -7 -20 -110
-20 l-110 0 0 -30 0 -30 110 0 c103 0 110 -1 110 -20 0 -19 -7 -20 -145 -20
l-145 0 0 -30 0 -30 145 0 145 0 0 -90 0 -90 35 0 35 0 0 90 0 90 140 0 140 0
0 30 0 30 -140 0 c-133 0 -140 1 -140 20 0 19 7 20 105 20 l105 0 0 30 0 30
-105 0 c-98 0 -105 1 -105 20 0 19 7 20 125 20 l125 0 0 30 0 30 -70 0 c-38 0
-70 3 -70 6 0 3 4 14 10 24 8 14 5 19 -13 26 -15 5 11 9 76 11 l97 4 0 29 c0
29 -1 30 -51 30 l-51 0 21 33 21 34 -27 12 c-30 14 -31 12 -65 -48 -12 -22
-24 -31 -43 -31 -23 0 -25 3 -25 50 l0 50 -35 0 -35 0 0 -50 c0 -49 -1 -50
-30 -50 -29 0 -30 1 -30 50 l0 50 -35 0 -35 0 0 -50z m200 -120 c0 -6 -7 -22
-16 -35 -15 -23 -23 -25 -85 -25 -66 0 -69 1 -84 30 -8 16 -15 31 -15 35 0 3
45 5 100 5 62 0 100 -4 100 -10z"/>
<path d="M12771 1264 l-21 -44 -95 0 -95 0 0 -30 c0 -26 3 -30 29 -30 15 0 49
-3 75 -6 l46 -7 -16 -26 c-10 -14 -46 -61 -81 -103 l-64 -77 26 -17 c26 -17
26 -17 78 33 64 62 107 85 154 81 56 -5 50 -23 -17 -59 -83 -44 -130 -100
-130 -154 0 -74 43 -109 157 -124 64 -9 257 0 270 13 3 3 3 16 -1 29 l-6 24
-137 -5 c-111 -4 -145 -1 -175 11 -33 14 -38 20 -38 50 0 39 31 73 98 106 l42
21 0 -70 0 -70 35 0 35 0 0 85 0 84 53 16 c28 8 69 18 89 22 35 5 37 8 32 32
-4 14 -9 29 -13 33 -3 3 -44 -5 -89 -18 l-84 -24 -30 25 c-48 41 -71 42 -152
10 -16 -7 -17 -5 -7 11 39 68 38 68 190 75 78 3 143 8 145 10 2 2 2 16 -1 31
l-5 26 -121 -6 c-131 -6 -126 -8 -103 48 4 11 -2 19 -22 26 -28 11 -30 10 -51
-32z"/>
<path d="M14210 1230 l0 -80 -40 0 c-38 0 -40 -2 -40 -30 0 -28 2 -30 40 -30
l40 0 0 -113 c0 -80 -4 -119 -14 -132 -10 -14 -11 -26 -3 -49 5 -17 11 -32 12
-34 3 -4 79 25 139 53 55 26 66 43 47 73 -6 10 -18 9 -59 -7 l-52 -21 0 115 0
115 65 0 65 0 0 30 0 30 -65 0 -65 0 0 80 0 80 -35 0 -35 0 0 -80z"/>
<path d="M16110 1260 l0 -50 -175 0 -175 0 0 -30 0 -30 174 0 174 0 6 -32 c8
-39 3 -44 -26 -24 -30 21 -84 20 -127 -2 -101 -51 -106 -183 -9 -242 35 -21
112 -27 123 -10 12 19 26 11 15 -9 -9 -17 -100 -68 -153 -85 -16 -5 -17 -8 -2
-36 l15 -30 57 26 c78 34 119 67 145 117 20 36 23 61 26 185 l4 142 99 0 99 0
0 35 0 35 -100 -6 -100 -7 0 51 0 52 -35 0 -35 0 0 -50z m-23 -232 c29 -32 34
-53 22 -88 -13 -37 -36 -50 -83 -50 -49 0 -76 29 -76 79 0 31 6 44 26 60 36
28 85 27 111 -1z"/>
<path d="M12050 1270 c0 -30 0 -30 56 -30 52 0 55 -1 52 -22 -3 -20 -10 -23
-50 -26 l-48 -3 0 -195 0 -194 140 0 140 0 0 195 0 195 -60 0 c-60 0 -66 4
-54 34 5 12 21 16 65 16 59 0 59 0 59 30 l0 30 -150 0 -150 0 0 -30z m230
-165 c0 -25 -1 -25 -80 -25 -79 0 -80 0 -80 25 0 25 1 25 80 25 79 0 80 0 80
-25z m0 -105 l0 -30 -80 0 -80 0 0 30 0 30 80 0 80 0 0 -30z m0 -110 l0 -30
-80 0 -80 0 0 30 0 30 80 0 80 0 0 -30z"/>
<path d="M15022 1236 c-38 -171 -40 -365 -7 -476 22 -72 20 -70 56 -57 24 9
29 16 24 32 -38 126 -42 309 -10 459 8 38 13 71 11 73 -2 2 -17 7 -33 12 -30
9 -30 8 -41 -43z"/>
<path d="M14390 1250 l0 -30 66 0 67 0 -7 -93 c-12 -174 -57 -286 -153 -381
l-54 -54 31 -22 30 -22 55 56 c97 100 155 260 155 430 l0 86 60 0 60 0 0 -157
c-1 -189 -12 -287 -36 -314 -13 -14 -30 -19 -70 -19 -52 0 -52 0 -45 -27 7
-26 11 -28 68 -31 53 -3 64 0 91 23 17 15 36 43 42 63 6 20 14 146 17 280 l6
242 -191 0 -192 0 0 -30z"/>
<path d="M16803 1263 l-153 -4 0 -35 0 -35 108 6 c59 3 124 8 145 11 20 2 37
2 37 -1 0 -3 -76 -68 -170 -146 -169 -140 -170 -140 -153 -163 l17 -22 54 38
c98 68 227 101 310 79 51 -14 72 -43 72 -99 0 -35 -6 -49 -29 -73 -35 -34 -47
-36 -56 -8 -13 39 -66 88 -107 100 -61 16 -112 3 -148 -37 -39 -45 -40 -86 -2
-124 92 -91 336 -47 398 72 18 35 18 111 -1 148 -34 66 -133 101 -231 82 -31
-7 -58 -11 -60 -9 -1 1 50 42 113 91 l114 88 -22 24 c-16 17 -32 23 -53 22
-17 -1 -100 -4 -183 -5z m76 -417 c25 -13 51 -52 51 -76 0 -14 -101 -12 -130
3 -31 16 -39 56 -14 74 23 17 58 17 93 -1z"/>
<path d="M15246 1203 l-88 -4 6 -31 c3 -17 7 -33 9 -34 1 -2 85 0 185 3 l182
6 0 34 0 33 -102 -2 c-57 -1 -143 -4 -192 -5z"/>
<path d="M17660 930 l0 -190 -60 0 -60 0 0 140 0 140 -35 0 -35 0 0 -140 0
-140 -50 0 c-49 0 -50 -1 -50 -30 l0 -30 305 0 305 0 0 30 0 30 -125 0 -125 0
0 80 0 80 95 0 95 0 0 35 0 35 -95 0 -95 0 0 75 0 75 -35 0 -35 0 0 -190z"/>
<path d="M11355 1099 c-27 -5 -123 -13 -212 -17 -90 -5 -166 -11 -169 -15 -4
-3 -3 -18 0 -33 l7 -26 99 7 100 7 0 -41 0 -41 -135 0 -135 0 0 -35 0 -35 120
0 c66 0 120 -3 120 -7 0 -3 -11 -20 -24 -37 -28 -38 -100 -78 -179 -101 l-57
-17 20 -28 c19 -26 23 -28 58 -18 62 17 158 68 190 101 16 18 39 49 49 69 l20
37 31 -44 c40 -56 109 -107 197 -144 l69 -29 18 29 c22 36 22 39 2 39 -54 0
-244 109 -244 141 0 5 53 9 120 9 l120 0 0 35 0 35 -148 0 -148 0 4 40 c5 44
-8 39 155 61 48 6 87 13 87 15 0 1 -5 15 -12 29 -12 28 -32 30 -123 14z"/>
<path d="M11925 1020 c-9 -10 -38 -27 -64 -36 -25 -10 -47 -19 -49 -20 -2 -1
2 -14 10 -28 l13 -25 50 23 c28 14 64 36 80 50 29 25 29 26 11 41 -25 19 -29
19 -51 -5z"/>
<path d="M15171 925 c-12 -31 -21 -65 -21 -76 0 -40 31 -80 78 -102 41 -19 65
-22 189 -22 78 0 144 3 148 7 4 4 4 19 1 35 l-6 28 -138 0 c-115 0 -142 3
-165 18 -31 20 -36 65 -12 107 19 34 19 35 -10 48 -39 18 -42 16 -64 -43z"/>
<path d="M11949 923 c-13 -14 -49 -38 -80 -52 -51 -25 -55 -29 -46 -49 6 -12
16 -22 24 -22 37 0 163 87 163 114 0 6 -8 16 -19 23 -16 10 -22 8 -42 -14z"/>
<path d="M11946 795 c-21 -19 -59 -42 -85 -51 -61 -23 -65 -27 -49 -58 l13
-26 60 29 c33 15 80 47 105 70 43 39 44 41 26 56 -26 20 -25 20 -70 -20z"/>
<path d="M18297 789 c-15 -12 -49 -33 -76 -48 l-49 -26 23 -27 23 -26 53 35
c30 20 64 45 76 56 22 19 22 22 6 39 -20 22 -22 22 -56 -3z"/>
<path d="M18617 792 c-17 -18 -15 -21 54 -71 68 -50 72 -51 90 -35 10 9 19 21
19 25 0 8 -108 85 -133 95 -7 2 -21 -4 -30 -14z"/>
<path d="M12246 771 c-16 -18 -15 -21 31 -64 47 -45 48 -46 67 -27 22 22 17
32 -44 80 -36 29 -38 29 -54 11z"/>
<path d="M12108 756 c-15 -13 -37 -31 -50 -40 l-22 -16 21 -21 21 -22 48 46
c42 39 46 47 35 61 -17 21 -21 20 -53 -8z"/>
</g>
</svg>