<?xml version="1.0" encoding="UTF-8"?>
<svg xmlns="http://www.w3.org/2000/svg" width="1920" height="600" viewBox="0 0 1920 600">
  <defs>
    <!-- Card grain -->
    <filter id="cardGrain" x="-20%" y="-20%" width="140%" height="140%">
      <feTurbulence type="fractalNoise" baseFrequency="0.9" numOctaves="3" seed="17" result="n"/>
      <feColorMatrix type="matrix" values="
        1 0 0 0 0
        0 1 0 0 0
        0 0 1 0 0
        0 0 0 0.10 0" result="na"/>
      <feBlend in="SourceGraphic" in2="na" mode="overlay"/>
    </filter>

    <!-- Vignette -->
    <radialGradient id="vig" cx="50%" cy="45%" r="72%">
      <stop offset="0%" stop-color="#000" stop-opacity="0"/>
      <stop offset="80%" stop-color="#000" stop-opacity="0.18"/>
      <stop offset="100%" stop-color="#000" stop-opacity="0.50"/>
    </radialGradient>

    <!-- Single flat "gold ink" -->
    <style>
      .inkStroke{
        stroke:#bda463;
        fill:none;
        stroke-linecap:round;
        stroke-linejoin:round;
      }
    </style>

    <!-- Slight softening to mimic ink on paper -->
    <filter id="inkSoft" x="-30%" y="-30%" width="160%" height="160%">
      <feGaussianBlur stdDeviation="0.75" />
    </filter>

    <!-- Even softer for clouds -->
    <filter id="cloudSoft" x="-40%" y="-40%" width="180%" height="180%">
      <feGaussianBlur stdDeviation="1.25" />
    </filter>
  </defs>

  <!-- Background -->
  <rect width="1920" height="600" fill="#0b0b0b"/>
  <rect width="1920" height="600" fill="url(#vig)"/>
  <g filter="url(#cardGrain)"><rect width="1920" height="600" fill="transparent"/></g>

  <!-- Left-top breeze -->
  <g filter="url(#inkSoft)" opacity="0.55">
    <path class="inkStroke" stroke-width="1.35" opacity="0.42"
          d="M 110 115 C 240 70, 365 78, 505 118 C 650 160, 775 150, 910 112" />
    <path class="inkStroke" stroke-width="1.05" opacity="0.30"
          d="M 135 150 C 270 122, 395 132, 530 162 C 670 190, 790 188, 920 156" />
    <path class="inkStroke" stroke-width="0.90" opacity="0.24"
          d="M 160 92 C 265 64, 400 64, 535 94 C 675 124, 800 118, 930 92" />
  </g>

  <!-- Right-bottom breeze -->
  <g filter="url(#inkSoft)" opacity="0.55">
    <path class="inkStroke" stroke-width="1.35" opacity="0.42"
          d="M 1010 485 C 1145 440, 1285 448, 1435 488 C 1585 528, 1725 518, 1860 482" />
    <path class="inkStroke" stroke-width="1.05" opacity="0.30"
          d="M 995 520 C 1140 498, 1290 508, 1445 536 C 1605 562, 1738 560, 1870 534" />
    <path class="inkStroke" stroke-width="0.90" opacity="0.24"
          d="M 1025 455 C 1160 430, 1305 432, 1460 458 C 1620 484, 1750 478, 1875 458" />
  </g>

  <!-- Right-top light auspicious clouds -->
  <g filter="url(#cloudSoft)" opacity="0.22">
    <path class="inkStroke" stroke-width="1.15"
          d="M 1340 120
             C 1395 88, 1458 92, 1490 118
             C 1520 142, 1565 140, 1595 118
             C 1632 92, 1698 96, 1730 126
             C 1760 154, 1815 154, 1850 132" />
    <path class="inkStroke" stroke-width="0.95" opacity="0.75"
          d="M 1405 165
             C 1450 142, 1498 146, 1525 164
             C 1555 184, 1600 182, 1628 164
             C 1662 142, 1715 145, 1745 170" />
    <!-- small swirl -->
    <path class="inkStroke" stroke-width="0.85" opacity="0.70"
          d="M 1665 95
             C 1690 78, 1720 80, 1735 95
             C 1750 110, 1732 128, 1710 126
             C 1688 124, 1680 110, 1692 102" />
  </g>

  <!-- Left-bottom light auspicious clouds -->
  <g filter="url(#cloudSoft)" opacity="0.22">
    <path class="inkStroke" stroke-width="1.15"
          d="M 110 470
             C 165 438, 228 442, 260 468
             C 290 492, 335 490, 365 468
             C 402 442, 468 446, 500 476
             C 530 504, 585 504, 620 482" />
    <path class="inkStroke" stroke-width="0.95" opacity="0.75"
          d="M 175 515
             C 220 492, 268 496, 295 514
             C 325 534, 370 532, 398 514
             C 432 492, 485 495, 515 520" />
    <!-- small swirl -->
    <path class="inkStroke" stroke-width="0.85" opacity="0.70"
          d="M 315 448
             C 340 431, 370 433, 385 448
             C 400 463, 382 481, 360 479
             C 338 477, 330 463, 342 455" />
  </g>
</svg>