<?xml version="1.0" standalone="no"?>
<!DOCTYPE svg PUBLIC "-//W3C//DTD SVG 20010904//EN"
 "http://www.w3.org/TR/2001/REC-SVG-20010904/DTD/svg10.dtd">
<svg version="1.0" xmlns="http://www.w3.org/2000/svg"
 width="1024.000000pt" height="1024.000000pt" viewBox="0 0 1024.000000 1024.000000"
 preserveAspectRatio="xMidYMid meet">

<defs>
  <linearGradient id="goldGradient" x1="0%" y1="0%" x2="100%" y2="100%">
    <stop offset="0%" style="stop-color:#d4af37; stop-opacity:1" />
    <stop offset="50%" style="stop-color:#f5e7a3; stop-opacity:1" />
    <stop offset="100%" style="stop-color:#b8860b; stop-opacity:1" />
  </linearGradient>
</defs>

<g transform="translate(0.000000,1024.000000) scale(0.100000,-0.100000)"
fill="url(#goldGradient)" stroke="none">
<path d="M5494 9634 c-19 -15 -19 -15 1 -6 11 5 27 12 35 15 13 5 13 6 -1 6
-8 1 -24 -6 -35 -15z"/>
<path d="M5735 9601 c22 -10 43 -16 48 -14 4 2 7 0 7 -5 0 -6 36 -9 88 -8 48
1 202 -1 342 -4 245 -7 311 -2 326 22 5 8 -87 10 -342 6 -317 -5 -416 -2 -485
16 -13 3 -6 -2 16 -13z"/>
<path d="M7062 9455 c0 -16 2 -22 5 -12 2 9 2 23 0 30 -3 6 -5 -1 -5 -18z"/>
<path d="M7052 9380 c0 -14 2 -19 5 -12 2 6 2 18 0 25 -3 6 -5 1 -5 -13z"/>
<path d="M6491 9374 c0 -11 3 -14 6 -6 3 7 2 16 -1 19 -3 4 -6 -2 -5 -13z"/>
<path d="M6452 9233 c-49 -157 -41 -153 -264 -154 -145 -1 -174 -3 -138 -11
25 -5 56 -10 70 -10 67 0 257 16 276 23 24 9 60 76 69 129 3 19 11 54 17 78
21 83 2 50 -30 -55z"/>
<path d="M7883 9110 c0 -25 2 -35 4 -22 2 12 2 32 0 45 -2 12 -4 2 -4 -23z"/>
<path d="M6882 9085 c0 -16 2 -22 5 -12 2 9 2 23 0 30 -3 6 -5 -1 -5 -18z"/>
<path d="M5438 9058 c-30 -10 -46 -44 -29 -61 8 -8 11 -7 11 5 0 29 45 48 116
48 37 0 65 2 63 4 -11 9 -137 13 -161 4z"/>
<path d="M5878 9063 c17 -2 47 -2 65 0 17 2 3 4 -33 4 -36 0 -50 -2 -32 -4z"/>
<path d="M7313 9001 c-18 -36 -25 -57 -17 -46 23 29 56 95 52 105 -2 4 -17
-22 -35 -59z"/>
<path d="M5743 9053 c15 -2 39 -2 55 0 15 2 2 4 -28 4 -30 0 -43 -2 -27 -4z"/>
<path d="M6882 9005 c0 -16 2 -22 5 -12 2 9 2 23 0 30 -3 6 -5 -1 -5 -18z"/>
<path d="M6871 8958 c0 -9 -4 -25 -7 -35 -5 -14 -4 -15 5 -7 7 7 11 22 8 35
-2 13 -5 16 -6 7z"/>
<path d="M7832 8915 c-12 -25 -20 -45 -17 -45 7 0 47 81 43 86 -3 2 -14 -17
-26 -41z"/>
<path d="M5180 8909 c0 -5 5 -7 10 -4 6 3 10 8 10 11 0 2 -4 4 -10 4 -5 0 -10
-5 -10 -11z"/>
<path d="M5018 8900 c51 -5 105 -4 120 0 17 5 -16 8 -93 8 l-120 -1 93 -7z"/>
<path d="M7245 8884 c-9 -15 -12 -23 -6 -20 11 7 35 46 28 46 -3 0 -12 -12
-22 -26z"/>
<path d="M4750 8890 c-41 -6 -42 -7 -10 -8 19 0 55 3 80 7 40 8 41 8 10 8 -19
0 -55 -3 -80 -7z"/>
<path d="M4658 8873 c6 -2 18 -2 25 0 6 3 1 5 -13 5 -14 0 -19 -2 -12 -5z"/>
<path d="M4608 8863 c7 -3 16 -2 19 1 4 3 -2 6 -13 5 -11 0 -14 -3 -6 -6z"/>
<path d="M4548 8853 c6 -2 18 -2 25 0 6 3 1 5 -13 5 -14 0 -19 -2 -12 -5z"/>
<path d="M4498 8843 c7 -3 16 -2 19 1 4 3 -2 6 -13 5 -11 0 -14 -3 -6 -6z"/>
<path d="M7197 8812 c-13 -21 -61 -84 -106 -141 -67 -84 -77 -99 -52 -87 31
16 77 70 83 96 2 8 12 23 22 33 10 9 15 17 10 17 -5 0 -4 4 1 8 19 14 82 112
72 112 -3 0 -16 -17 -30 -38z"/>
<path d="M4420 8830 c-20 -6 -21 -8 -5 -8 11 0 31 4 45 8 20 6 21 8 5 8 -11 0
-31 -4 -45 -8z"/>
<path d="M4335 8810 l-20 -9 20 0 c11 0 29 4 40 9 l20 9 -20 0 c-11 0 -29 -4
-40 -9z"/>
<path d="M5566 8780 c-5 -25 -23 -87 -42 -139 -18 -52 -32 -96 -30 -99 2 -2
23 45 46 103 28 73 40 118 38 143 l-3 37 -9 -45z"/>
<path d="M6769 8753 c-13 -16 -12 -17 4 -4 9 7 17 15 17 17 0 8 -8 3 -21 -13z"/>
<path d="M6694 8674 c-18 -14 -18 -15 4 -4 12 6 22 13 22 15 0 8 -5 6 -26 -11z"/>
<path d="M3870 8640 c-19 -11 -30 -19 -25 -19 6 0 26 8 45 19 19 11 31 19 25
19 -5 0 -26 -8 -45 -19z"/>
<path d="M7587 8643 c-12 -11 -7 -73 7 -101 8 -15 32 -43 53 -62 l38 -35 -36
40 c-20 22 -40 50 -43 62 -9 28 19 83 42 83 15 0 15 2 2 10 -17 11 -54 13 -63
3z"/>
<path d="M5155 8610 l-40 -7 48 -2 c26 0 47 4 47 9 0 6 -3 9 -7 9 -5 -1 -26
-5 -48 -9z"/>
<path d="M4938 8573 c7 -3 16 -2 19 1 4 3 -2 6 -13 5 -11 0 -14 -3 -6 -6z"/>
<path d="M4838 8553 c6 -2 18 -2 25 0 6 3 1 5 -13 5 -14 0 -19 -2 -12 -5z"/>
<path d="M4798 8543 c7 -3 16 -2 19 1 4 3 -2 6 -13 5 -11 0 -14 -3 -6 -6z"/>
<path d="M4758 8533 c7 -3 16 -2 19 1 4 3 -2 6 -13 5 -11 0 -14 -3 -6 -6z"/>
<path d="M5915 8513 c-66 -7 -144 -20 -175 -28 -54 -13 -53 -13 60 -8 63 3
117 8 120 11 3 4 79 8 169 8 124 1 165 5 172 15 6 11 18 11 61 2 63 -13 76 -9
21 6 -53 15 -283 12 -428 -6z"/>
<path d="M5452 8468 c-19 -38 -21 -52 -13 -88 13 -60 18 -58 13 4 -3 39 0 60
13 79 9 15 15 32 13 39 -2 6 -14 -9 -26 -34z"/>
<path d="M6828 8376 c-153 -161 -173 -193 -166 -279 5 -59 35 -138 58 -152 5
-3 1 9 -10 27 -10 18 -24 57 -30 85 -10 45 -9 58 9 97 37 85 146 224 204 261
15 10 36 35 47 56 10 22 17 39 17 39 -1 -1 -59 -61 -129 -134z"/>
<path d="M3553 8469 c-35 -22 -46 -37 -15 -20 22 13 58 40 52 41 -3 0 -20 -10
-37 -21z"/>
<path d="M4512 8473 c-24 -8 -41 -17 -39 -19 2 -2 28 5 58 15 30 11 47 20 39
19 -8 0 -34 -6 -58 -15z"/>
<path d="M4093 8312 c-87 -39 -115 -58 -71 -47 29 8 179 85 163 84 -5 0 -47
-17 -92 -37z"/>
<path d="M3298 8294 c-32 -25 -58 -47 -58 -49 0 -8 99 62 109 78 16 24 13 23
-51 -29z"/>
<path d="M7839 8273 c20 -40 13 -87 -16 -115 -42 -38 -63 -47 -186 -73 l-112
-23 76 3 c62 2 90 9 148 35 41 19 81 45 92 61 23 33 25 88 3 115 -15 18 -15
18 -5 -3z"/>
<path d="M3133 8154 c-43 -42 -59 -60 -36 -41 23 20 53 43 66 52 23 15 64 65
53 65 -2 0 -40 -34 -83 -76z"/>
<path d="M6306 8185 c-4 -22 -22 -77 -41 -122 -18 -46 -32 -83 -30 -83 2 0 14
19 28 43 27 46 60 159 55 186 -2 9 -8 -2 -12 -24z"/>
<path d="M3831 8184 c-18 -8 -32 -16 -30 -18 2 -2 14 -8 26 -15 19 -9 22 -7
32 19 5 17 9 30 8 29 -1 0 -17 -7 -36 -15z"/>
<path d="M5953 8113 c9 -2 23 -2 30 0 6 3 -1 5 -18 5 -16 0 -22 -2 -12 -5z"/>
<path d="M2967 7996 c-60 -66 -71 -82 -53 -79 13 3 30 17 37 31 7 15 30 43 50
62 30 30 56 70 45 70 -2 0 -38 -38 -79 -84z"/>
<path d="M6938 8053 c7 -3 16 -2 19 1 4 3 -2 6 -13 5 -11 0 -14 -3 -6 -6z"/>
<path d="M7473 8053 c9 -2 25 -2 35 0 9 3 1 5 -18 5 -19 0 -27 -2 -17 -5z"/>
<path d="M7022 8033 c71 -16 273 -24 308 -11 16 5 50 13 77 17 28 4 -54 7
-195 7 -214 -1 -237 -2 -190 -13z"/>
<path d="M5395 8020 c11 -18 111 -33 188 -27 44 4 82 9 85 12 13 13 -9 16 -45
6 -52 -15 -118 -14 -181 3 -28 8 -50 11 -47 6z"/>
<path d="M3510 7987 c0 -8 10 -22 22 -33 12 -10 18 -13 14 -6 -7 12 5 16 34
12 23 -3 8 7 -33 25 -30 12 -37 13 -37 2z"/>
<path d="M4090 7891 c0 -8 52 -22 58 -16 2 1 -11 7 -27 13 -17 6 -31 7 -31 3z"/>
<path d="M2829 7841 c-24 -29 -44 -57 -44 -62 0 -4 -9 -15 -20 -23 -11 -9 -15
-16 -10 -16 14 0 105 93 105 107 0 6 5 13 12 15 6 2 9 10 6 18 -2 8 -20 -6
-49 -39z"/>
<path d="M6092 7810 c-68 -64 -70 -67 -30 -45 24 13 58 45 76 70 17 25 31 45
29 45 -1 -1 -35 -32 -75 -70z"/>
<path d="M4120 7843 c13 -18 25 -33 27 -33 8 0 -17 38 -33 51 -11 9 -9 2 6
-18z"/>
<path d="M1136 7836 c-165 -61 -224 -278 -129 -472 14 -30 34 -60 42 -67 14
-10 14 -10 5 3 -7 8 -24 56 -40 105 -36 116 -33 190 13 305 4 8 7 17 7 20 3
15 34 49 39 43 4 -3 7 0 7 9 0 11 22 18 85 27 47 7 93 10 103 7 15 -6 15 -5 2
8 -22 22 -89 28 -134 12z"/>
<path d="M8211 7823 c14 -15 37 -44 51 -64 15 -20 34 -36 42 -36 17 0 -76 108
-104 121 -8 4 -3 -5 11 -21z"/>
<path d="M3270 7815 c-11 -13 -10 -14 4 -9 9 3 16 10 16 15 0 13 -6 11 -20 -6z"/>
<path d="M3626 7770 c21 -93 15 -180 -20 -285 -3 -11 4 0 16 25 28 60 35 177
14 240 -9 25 -13 34 -10 20z"/>
<path d="M1620 7698 c-1 -29 -5 -71 -9 -93 -5 -22 -12 -56 -15 -75 l-6 -35 16
40 c16 40 33 215 20 215 -3 0 -6 -24 -6 -52z"/>
<path d="M3110 7677 c-30 -28 -68 -68 -85 -87 -28 -33 -27 -32 18 7 43 37 134
133 125 133 -1 0 -28 -24 -58 -53z"/>
<path d="M5955 7705 c-22 -14 -35 -25 -30 -25 12 0 75 38 75 45 0 7 -1 7 -45
-20z"/>
<path d="M8345 7690 c10 -11 20 -20 23 -20 3 0 -3 9 -13 20 -10 11 -20 20 -23
20 -3 0 3 -9 13 -20z"/>
<path d="M6572 7670 c-26 -35 -25 -36 22 -13 28 13 33 19 25 30 -16 19 -23 17
-47 -17z"/>
<path d="M4215 7670 c25 -118 14 -206 -40 -315 -33 -68 -34 -69 -7 -38 47 55
67 125 66 233 0 52 -6 106 -13 120 l-12 25 6 -25z"/>
<path d="M7855 7675 l-60 -13 70 5 c39 4 78 6 88 5 9 0 15 3 12 9 -8 12 -35
10 -110 -6z"/>
<path d="M4641 7664 c0 -11 3 -14 6 -6 3 7 2 16 -1 19 -3 4 -6 -2 -5 -13z"/>
<path d="M7758 7653 c7 -3 16 -2 19 1 4 3 -2 6 -13 5 -11 0 -14 -3 -6 -6z"/>
<path d="M7658 7643 c7 -3 16 -2 19 1 4 3 -2 6 -13 5 -11 0 -14 -3 -6 -6z"/>
<path d="M4654 7590 c5 -69 -11 -210 -33 -278 -10 -34 -16 -62 -12 -62 4 0 17
33 29 73 24 84 37 239 22 282 -9 28 -9 26 -6 -15z"/>
<path d="M5770 7620 c-8 -5 -10 -10 -5 -10 6 0 17 5 25 10 8 5 11 10 5 10 -5
0 -17 -5 -25 -10z"/>
<path d="M5695 7599 c-81 -25 -243 -41 -351 -35 -60 4 -113 4 -117 0 -12 -12
23 -63 54 -80 17 -8 33 -13 36 -11 2 3 -5 8 -17 12 -16 5 -18 10 -10 20 11 13
53 19 205 31 44 3 94 13 112 21 17 8 58 23 90 33 32 10 51 18 43 18 -8 0 -28
-4 -45 -9z"/>
<path d="M6883 7603 c20 -2 54 -2 75 0 20 2 3 4 -38 4 -41 0 -58 -2 -37 -4z"/>
<path d="M2958 7527 c-20 -17 -25 -28 -21 -49 6 -34 23 -27 23 9 0 15 7 35 17
45 22 24 14 22 -19 -5z"/>
<path d="M6434 7518 l-19 -23 23 19 c21 18 27 26 19 26 -2 0 -12 -10 -23 -22z"/>
<path d="M2368 7470 c-66 -23 -129 -59 -218 -124 -190 -140 -419 -188 -625
-130 -11 3 -5 -4 13 -15 18 -12 36 -20 40 -19 4 1 41 -2 82 -7 126 -14 185 -8
252 26 21 11 38 16 38 13 0 -4 8 0 18 9 10 10 22 14 25 10 4 -3 7 -1 7 6 0 6
6 11 13 10 27 -4 133 48 192 96 22 18 58 41 80 52 50 25 167 63 195 63 11 0
20 5 20 11 0 8 18 10 58 6 34 -3 49 -2 37 3 -38 16 -167 10 -227 -10z"/>
<path d="M6379 7473 c-13 -16 -12 -17 4 -4 9 7 17 15 17 17 0 8 -8 3 -21 -13z"/>
<path d="M6339 7443 c-13 -16 -12 -17 4 -4 9 7 17 15 17 17 0 8 -8 3 -21 -13z"/>
<path d="M8500 7420 c6 -11 13 -20 16 -20 2 0 0 9 -6 20 -6 11 -13 20 -16 20
-2 0 0 -9 6 -20z"/>
<path d="M6213 7369 c-45 -29 -41 -34 7 -9 38 19 50 30 33 30 -5 0 -23 -10
-40 -21z"/>
<path d="M3485 7323 c-36 -33 -44 -44 -20 -25 38 28 93 83 84 82 -2 -1 -31
-26 -64 -57z"/>
<path d="M1075 7260 c10 -11 20 -20 23 -20 3 0 -3 9 -13 20 -10 11 -20 20 -23
20 -3 0 3 -9 13 -20z"/>
<path d="M5845 7227 c-66 -16 -150 -39 -187 -49 -63 -19 -70 -19 -93 -4 -26
17 -77 20 -110 6 -15 -6 -5 -9 35 -9 30 -1 73 -8 95 -16 45 -16 106 -19 121
-6 5 5 54 25 109 44 104 36 177 66 160 65 -5 -1 -64 -14 -130 -31z"/>
<path d="M1115 7210 c10 -11 20 -20 23 -20 3 0 -3 9 -13 20 -10 11 -20 20 -23
20 -3 0 3 -9 13 -20z"/>
<path d="M3295 7210 c-75 -35 -165 -43 -335 -30 -135 11 -167 10 -249 -4 -51
-9 -99 -20 -107 -24 -7 -4 128 -6 299 -4 l312 2 63 33 c88 44 101 66 17 27z"/>
<path d="M7346 7190 c-147 -58 -214 -163 -236 -374 -11 -112 -27 -154 -75
-207 -43 -48 -51 -78 -36 -144 13 -57 14 -55 -49 -165 -25 -44 -25 -76 1 -119
11 -18 33 -70 49 -115 23 -67 29 -102 33 -201 5 -136 24 -198 82 -277 41 -56
123 -113 191 -134 58 -17 258 -20 328 -4 119 26 219 106 274 220 27 55 33 84
42 185 11 124 17 141 91 272 22 38 23 44 10 80 -8 21 -27 57 -42 80 -27 39
-29 48 -29 145 0 102 -1 106 -40 183 -35 70 -40 87 -40 149 0 213 -70 345
-218 414 -50 23 -72 27 -172 29 -93 2 -124 -1 -164 -17z m149 -586 c31 -20 31
-36 1 -71 -29 -33 -43 -25 -56 33 -6 27 -5 41 3 46 17 11 25 10 52 -8z m-173
-51 c14 -16 28 -36 31 -45 5 -14 18 -18 57 -18 52 0 62 -11 38 -42 -10 -12
-41 -17 -123 -22 -60 -3 -126 -9 -145 -12 -41 -6 -77 14 -67 40 5 13 21 16 87
16 90 0 105 11 75 56 -34 52 4 73 47 27z m455 -57 c23 -20 26 -28 17 -43 -6
-10 -24 -19 -40 -21 -99 -8 -112 -12 -107 -33 4 -12 -3 -29 -17 -44 -20 -21
-21 -27 -9 -41 12 -14 10 -19 -10 -36 -37 -29 -55 -20 -59 30 -3 38 1 47 31
77 32 32 33 35 14 35 -37 0 -67 12 -67 25 0 17 21 24 92 32 35 3 68 14 81 24
29 24 41 24 74 -5z m-478 -95 c12 -8 12 -16 -2 -53 -9 -24 -17 -68 -17 -97 0
-51 1 -53 18 -39 9 8 25 18 35 21 18 7 25 57 7 57 -5 0 -10 11 -10 26 0 19 8
28 34 39 19 8 37 20 40 27 4 7 4 3 2 -9 -3 -16 7 -29 38 -51 22 -16 48 -31 56
-34 9 -3 -1 -9 -22 -13 -21 -4 -51 -3 -67 3 -36 13 -41 8 -41 -35 l0 -33 148
6 c81 3 162 10 181 14 41 11 64 -3 59 -34 -3 -20 -10 -21 -103 -23 -157 -4
-170 -12 -113 -65 37 -34 90 -62 206 -108 98 -39 126 -68 97 -100 -30 -33 -71
-25 -128 23 -64 54 -166 117 -190 117 -15 0 -17 -11 -17 -79 0 -58 -4 -82 -15
-91 -12 -10 -18 -10 -31 0 -12 11 -14 25 -8 67 7 62 4 64 -66 28 -27 -14 -60
-25 -72 -25 -22 1 -21 2 9 29 18 15 53 37 77 49 45 23 59 42 50 65 -3 8 0 26
6 42 6 15 7 32 3 36 -4 4 -48 9 -96 11 l-89 3 6 -34 c3 -19 1 -42 -5 -52 -13
-26 5 -25 31 1 25 25 62 34 98 25 l27 -7 -38 -19 c-21 -11 -58 -35 -82 -53
-23 -18 -63 -43 -88 -55 -51 -25 -72 -45 -62 -61 3 -5 0 -10 -8 -10 -17 0 -56
71 -42 77 6 2 34 17 63 34 l53 30 -3 105 c-2 63 -7 103 -13 101 -5 -2 -19 -20
-30 -41 -22 -41 -48 -61 -71 -52 -28 11 -13 39 56 109 53 53 70 77 70 98 0 35
29 49 59 30z"/>
<path d="M5240 7181 c43 -22 102 -32 121 -20 10 6 5 9 -17 9 -17 0 -53 7 -80
15 -63 19 -67 18 -24 -4z"/>
<path d="M8151 6974 c0 -11 3 -14 6 -6 3 7 2 16 -1 19 -3 4 -6 -2 -5 -13z"/>
<path d="M4616 6964 c-18 -17 -19 -24 -10 -48 5 -13 9 -14 20 -5 8 6 14 16 14
21 0 24 31 40 68 34 26 -4 31 -3 17 4 -32 14 -92 11 -109 -6z"/>
<path d="M8161 6924 c0 -11 3 -14 6 -6 3 7 2 16 -1 19 -3 4 -6 -2 -5 -13z"/>
<path d="M5412 6878 c-17 -17 -15 -43 5 -59 9 -8 14 -9 10 -3 -7 11 30 58 53
67 8 3 -1 6 -20 6 -20 1 -41 -4 -48 -11z"/>
<path d="M8171 6870 c0 -14 6 -50 14 -80 17 -71 18 -33 0 45 -7 33 -14 49 -14
35z"/>
<path d="M1861 6819 c-44 -54 -170 -153 -240 -188 -94 -48 -157 -62 -298 -68
-149 -7 -164 -13 -139 -61 8 -15 23 -35 33 -43 16 -12 17 -12 6 2 -18 23 31
48 108 54 35 3 75 8 89 11 44 9 160 57 160 66 0 5 5 6 10 3 13 -8 46 12 123
77 32 26 63 48 69 48 14 0 65 57 101 113 25 39 15 33 -22 -14z"/>
<path d="M5965 6849 c-16 -5 -100 -13 -185 -17 l-155 -7 140 -5 c102 -4 151
-1 180 8 22 8 60 17 85 22 l45 8 -40 0 c-22 0 -53 -4 -70 -9z"/>
<path d="M4672 6810 c0 -14 2 -19 5 -12 2 6 2 18 0 25 -3 6 -5 1 -5 -13z"/>
<path d="M4658 6752 c-4 -14 -18 -21 -53 -25 -69 -10 -183 -8 -235 4 -107 25
-106 25 -139 -21 -35 -49 -37 -59 -15 -86 15 -18 15 -18 5 3 -16 31 -15 32 27
50 28 12 75 16 192 17 179 2 230 14 230 52 0 29 -6 31 -12 6z"/>
<path d="M4941 6737 c-121 -9 -123 -10 -90 -24 27 -11 50 -12 114 -4 44 5 110
9 148 7 37 -1 67 -1 67 1 0 1 -8 6 -17 11 -32 17 -96 20 -222 9z"/>
<path d="M5488 6555 c2 -88 5 -164 7 -170 7 -20 2 271 -4 300 -4 17 -6 -42 -3
-130z"/>
<path d="M6020 6641 c0 -52 -18 -189 -30 -224 -5 -15 -5 -25 -1 -23 5 3 13 25
19 49 14 52 28 237 18 237 -3 0 -6 -18 -6 -39z"/>
<path d="M2751 6620 c38 -101 20 -264 -46 -407 -19 -41 -28 -70 -21 -64 8 7
34 58 57 114 43 100 44 104 44 216 0 101 -3 118 -23 152 -13 22 -25 39 -27 39
-2 0 5 -23 16 -50z"/>
<path d="M3903 6643 c-16 -3 -23 -11 -22 -26 1 -17 2 -18 6 -4 2 9 13 17 24
17 10 0 19 5 19 10 0 6 -1 9 -2 9 -2 -1 -13 -4 -25 -6z"/>
<path d="M3855 6512 c-10 -42 -20 -84 -22 -92 -4 -13 -4 -13 6 0 12 17 46 159
39 165 -2 3 -13 -30 -23 -73z"/>
<path d="M4975 6580 c-3 -5 -15 -10 -25 -10 -10 0 -26 -7 -35 -16 -15 -15 -14
-18 6 -40 28 -30 50 -30 77 -1 27 28 27 29 3 56 -12 13 -22 18 -26 11z"/>
<path d="M4617 6550 c-25 -29 -30 -31 -73 -24 -37 5 -46 4 -42 -7 3 -8 16 -14
29 -14 13 0 34 -4 46 -8 40 -14 63 -16 63 -5 0 6 6 16 14 22 11 9 11 16 1 39
l-12 29 -26 -32z"/>
<path d="M8920 6543 c0 -16 39 -127 39 -115 1 18 -29 122 -35 122 -2 0 -4 -3
-4 -7z"/>
<path d="M8252 6520 c0 -14 2 -19 5 -12 2 6 2 18 0 25 -3 6 -5 1 -5 -13z"/>
<path d="M2367 6473 c-32 -9 -56 -17 -53 -20 2 -2 21 0 42 6 22 5 58 12 81 14
24 2 46 6 50 10 11 12 -59 6 -120 -10z"/>
<path d="M2140 6395 c-14 -8 -20 -14 -15 -14 6 0 21 6 35 14 14 8 21 14 15 14
-5 0 -21 -6 -35 -14z"/>
<path d="M8961 6394 c0 -11 3 -14 6 -6 3 7 2 16 -1 19 -3 4 -6 -2 -5 -13z"/>
<path d="M4895 6384 c-27 -7 -90 -14 -139 -14 -130 0 -102 -8 39 -11 121 -2
190 6 201 23 3 5 15 6 27 3 17 -5 19 -4 7 4 -20 14 -74 12 -135 -5z"/>
<path d="M4250 6350 c-11 -11 -20 -24 -20 -29 0 -10 72 4 102 20 12 6 50 9 92
6 40 -3 88 0 110 6 34 11 20 12 -113 14 -139 2 -153 1 -171 -17z"/>
<path d="M6170 6361 c-74 -10 -19 -22 63 -14 58 6 66 8 42 14 -36 8 -46 8
-105 0z"/>
<path d="M5475 6350 c-4 -7 -56 -10 -136 -9 -133 1 -148 -3 -170 -43 -7 -13
-5 -27 6 -48 18 -34 25 -39 18 -11 -5 19 11 38 61 79 10 8 50 12 114 12 76 0
102 4 112 15 7 8 10 15 7 15 -3 0 -9 -5 -12 -10z"/>
<path d="M6649 6260 c-4 -62 -11 -106 -22 -127 -10 -18 -15 -33 -13 -33 3 0
13 14 22 31 10 20 19 28 23 20 4 -6 6 31 4 82 -6 130 -9 136 -14 27z"/>
<path d="M5878 6333 c6 -2 18 -2 25 0 6 3 1 5 -13 5 -14 0 -19 -2 -12 -5z"/>
<path d="M5830 6315 c-6 -8 -10 -20 -7 -27 4 -8 6 -7 6 4 1 9 9 22 19 27 9 6
12 11 6 11 -6 0 -17 -7 -24 -15z"/>
<path d="M8991 6274 c0 -11 3 -14 6 -6 3 7 2 16 -1 19 -3 4 -6 -2 -5 -13z"/>
<path d="M1850 6250 c-9 -6 -10 -10 -3 -10 6 0 15 5 18 10 8 12 4 12 -15 0z"/>
<path d="M1780 6220 c-8 -5 -10 -10 -5 -10 6 0 17 5 25 10 8 5 11 10 5 10 -5
0 -17 -5 -25 -10z"/>
<path d="M5248 6203 c7 -3 16 -2 19 1 4 3 -2 6 -13 5 -11 0 -14 -3 -6 -6z"/>
<path d="M5771 6196 c-6 -7 -33 -53 -59 -102 -40 -74 -54 -90 -78 -95 l-29 -7
34 -1 c28 -1 41 7 73 42 22 23 47 59 55 79 11 27 20 36 33 33 14 -3 17 1 13
12 -4 11 -2 14 5 9 16 -10 16 16 0 32 -16 16 -33 15 -47 -2z"/>
<path d="M8331 6163 c-1 -28 -10 -79 -20 -112 -21 -69 -19 -80 4 -23 26 60 36
124 26 157 -8 27 -9 25 -10 -22z"/>
<path d="M4607 6193 c-4 -3 -7 -16 -6 -27 0 -19 1 -19 10 3 10 24 8 36 -4 24z"/>
<path d="M1535 6139 c-16 -6 -77 -13 -135 -18 -98 -8 -100 -8 -34 -10 72 -1
177 14 204 30 19 11 3 10 -35 -2z"/>
<path d="M4317 6132 c-9 -10 -17 -27 -17 -38 0 -10 -16 -44 -35 -74 -63 -100
-70 -117 -57 -142 12 -22 12 -22 7 -1 -7 26 23 89 59 122 14 14 26 31 26 39 0
24 42 91 54 86 6 -2 25 0 41 5 28 9 29 9 5 10 -14 1 -34 4 -45 7 -13 3 -27 -2
-38 -14z"/>
<path d="M4945 6144 c-6 -2 -37 -8 -70 -13 -57 -9 -56 -9 37 -8 76 2 94 5 86
15 -10 12 -33 15 -53 6z"/>
<path d="M9022 6130 c0 -14 2 -19 5 -12 2 6 2 18 0 25 -3 6 -5 1 -5 -13z"/>
<path d="M4485 6130 c7 -12 49 -12 85 0 19 6 11 8 -33 9 -36 1 -56 -3 -52 -9z"/>
<path d="M1258 6123 c6 -2 18 -2 25 0 6 3 1 5 -13 5 -14 0 -19 -2 -12 -5z"/>
<path d="M2609 6053 c-24 -32 -89 -115 -145 -184 -112 -139 -155 -207 -208
-329 -85 -193 -119 -377 -120 -650 0 -190 9 -299 40 -485 20 -119 75 -348 81
-341 3 3 1 25 -5 48 -37 139 -74 355 -88 503 -26 277 -7 595 45 735 11 30 25
75 31 100 7 25 18 52 25 60 7 8 16 26 20 40 4 13 32 62 61 107 29 45 60 95 68
111 8 16 28 43 45 61 16 18 33 41 36 51 3 10 15 22 26 25 10 4 19 9 19 13 0 4
18 27 40 52 22 24 40 49 40 55 0 6 9 27 20 48 11 20 18 37 16 37 -2 0 -23 -26
-47 -57z"/>
<path d="M5030 6106 c0 -2 8 -10 18 -17 15 -13 16 -12 3 4 -13 16 -21 21 -21
13z"/>
<path d="M9032 6080 c0 -14 2 -19 5 -12 2 6 2 18 0 25 -3 6 -5 1 -5 -13z"/>
<path d="M9042 6030 c0 -14 3 -45 7 -70 6 -34 9 -37 9 -15 1 17 -3 48 -7 70
-6 25 -9 31 -9 15z"/>
<path d="M6520 6010 c-14 -10 -22 -21 -19 -24 3 -3 16 5 29 19 28 30 24 32
-10 5z"/>
<path d="M6025 6010 c-13 -6 -5 -7 25 -3 25 3 47 7 49 9 9 8 -55 2 -74 -6z"/>
<path d="M5285 5999 c-36 -21 -75 -62 -75 -80 0 -20 37 -59 54 -59 6 0 4 5 -5
10 -16 9 -15 34 2 90 0 3 5 4 10 3 5 -2 9 1 9 6 0 5 6 9 13 8 6 0 53 1 102 3
l90 3 -70 8 c-38 4 -79 10 -90 13 -11 3 -29 1 -40 -5z"/>
<path d="M5833 5993 c31 -2 83 -2 115 0 31 2 5 3 -58 3 -63 0 -89 -1 -57 -3z"/>
<path d="M3549 5973 c-13 -16 -12 -17 4 -4 9 7 17 15 17 17 0 8 -8 3 -21 -13z"/>
<path d="M4640 5974 c0 -11 -9 -30 -20 -42 -19 -20 -31 -22 -138 -22 -135 -1
-136 -17 -1 -25 107 -6 156 12 165 62 4 19 4 37 0 40 -3 4 -6 -3 -6 -13z"/>
<path d="M9451 5954 c0 -11 3 -14 6 -6 3 7 2 16 -1 19 -3 4 -6 -2 -5 -13z"/>
<path d="M3479 5913 c-13 -16 -12 -17 4 -4 16 13 21 21 13 21 -2 0 -10 -8 -17
-17z"/>
<path d="M9462 5895 c0 -16 2 -22 5 -12 2 9 2 23 0 30 -3 6 -5 -1 -5 -18z"/>
<path d="M9063 5875 c0 -22 2 -30 4 -17 2 12 2 30 0 40 -3 9 -5 -1 -4 -23z"/>
<path d="M4767 5883 c-4 -3 -7 -11 -7 -17 0 -6 5 -5 12 2 6 6 9 14 7 17 -3 3
-9 2 -12 -2z"/>
<path d="M8232 5865 c0 -16 2 -22 5 -12 2 9 2 23 0 30 -3 6 -5 -1 -5 -18z"/>
<path d="M9472 5810 c0 -19 2 -27 5 -17 2 9 2 25 0 35 -3 9 -5 1 -5 -18z"/>
<path d="M9075 5444 c0 -260 3 -359 9 -314 11 81 10 578 -1 644 -5 30 -8 -99
-8 -330z"/>
<path d="M3299 5773 c-13 -16 -12 -17 4 -4 9 7 17 15 17 17 0 8 -8 3 -21 -13z"/>
<path d="M4935 5770 c-34 -16 -35 -18 -10 -12 17 3 42 7 58 7 32 0 33 1 9 14
-13 7 -29 4 -57 -9z"/>
<path d="M5502 5758 c-10 -30 -10 -31 3 -14 13 17 21 46 12 46 -1 0 -8 -15
-15 -32z"/>
<path d="M4247 5708 c-10 -35 -32 -98 -49 -141 -28 -69 -30 -82 -20 -115 6
-21 19 -46 27 -57 9 -11 14 -14 10 -7 -16 31 -13 93 6 143 30 79 50 169 47
207 -3 30 -5 27 -21 -30z"/>
<path d="M5885 5728 c-15 -24 -43 -62 -62 -85 -42 -53 -28 -56 22 -5 38 38 92
132 76 132 -4 0 -21 -19 -36 -42z"/>
<path d="M9483 5725 c0 -22 2 -30 4 -17 2 12 2 30 0 40 -3 9 -5 -1 -4 -23z"/>
<path d="M4800 5727 c-36 -11 -59 -22 -53 -24 13 -5 143 35 143 43 0 7 -23 2
-90 -19z"/>
<path d="M8211 5734 c0 -11 3 -14 6 -6 3 7 2 16 -1 19 -3 4 -6 -2 -5 -13z"/>
<path d="M4651 5718 c-1 -12 6 -18 19 -18 11 0 20 5 20 11 0 6 -6 9 -14 6 -8
-3 -17 -1 -20 6 -2 7 -5 4 -5 -5z"/>
<path d="M6454 5704 c-10 -14 -40 -38 -67 -54 l-49 -28 32 -7 c34 -8 41 -2 87
77 25 43 22 52 -3 12z"/>
<path d="M5415 5678 c-27 -16 -39 -26 -25 -22 24 6 80 41 80 50 0 5 4 7 -55
-28z"/>
<path d="M8201 5694 c0 -11 3 -14 6 -6 3 7 2 16 -1 19 -3 4 -6 -2 -5 -13z"/>
<path d="M3102 5642 c-9 -6 -10 -16 -4 -32 9 -24 9 -23 14 8 2 18 4 32 4 32
-1 0 -7 -4 -14 -8z"/>
<path d="M4588 5625 c-26 -14 -88 -36 -139 -49 l-91 -23 43 -7 c24 -3 58 -2
74 2 45 13 149 68 164 86 18 22 4 19 -51 -9z"/>
<path d="M5285 5633 c-90 -26 -105 -34 -105 -58 0 -12 10 -30 22 -41 12 -11
18 -13 13 -4 -5 8 -10 24 -11 36 -3 23 19 36 116 68 58 19 31 18 -35 -1z"/>
<path d="M4915 5580 c-17 -75 -164 -243 -249 -284 -46 -22 -150 -39 -188 -31
-38 9 -36 -9 6 -51 47 -47 63 -45 118 13 11 12 37 29 58 37 20 8 48 27 61 43
13 16 45 41 71 56 40 23 52 39 87 110 39 79 59 137 48 137 -3 0 -8 -13 -12
-30z"/>
<path d="M8156 5565 c-9 -26 -7 -32 5 -12 6 10 9 21 6 23 -2 3 -7 -2 -11 -11z"/>
<path d="M9494 5450 c0 -74 1 -105 3 -67 2 37 2 97 0 135 -2 37 -3 6 -3 -68z"/>
<path d="M8136 5513 c-6 -14 -5 -15 5 -6 7 7 10 15 7 18 -3 3 -9 -2 -12 -12z"/>
<path d="M2769 5493 c-12 -16 -12 -17 1 -6 8 6 26 13 40 16 l25 4 -26 2 c-15
0 -33 -7 -40 -16z"/>
<path d="M5645 5460 c-31 -32 -176 -107 -262 -134 -58 -19 -199 -36 -238 -29
-29 6 -56 -12 -48 -33 7 -18 66 -54 89 -54 16 0 17 2 4 10 -10 6 -11 10 -2 10
6 0 12 6 12 14 0 9 17 16 45 21 25 3 43 10 40 16 -3 5 1 6 10 2 10 -3 20 -1
24 5 3 5 21 12 39 15 18 3 39 10 46 16 7 6 31 13 52 15 21 2 62 16 89 30 28
14 55 26 61 26 14 0 45 34 48 53 1 8 8 22 15 31 23 27 6 18 -24 -14z"/>
<path d="M8105 5464 c-9 -15 -12 -23 -6 -20 11 7 35 46 28 46 -3 0 -12 -12
-22 -26z"/>
<path d="M2719 5443 c-13 -16 -12 -17 4 -4 9 7 17 15 17 17 0 8 -8 3 -21 -13z"/>
<path d="M2685 5390 c-9 -16 -13 -30 -11 -30 3 0 12 14 21 30 9 17 13 30 11
30 -3 0 -12 -13 -21 -30z"/>
<path d="M3143 5350 c0 -25 2 -35 4 -22 2 12 2 32 0 45 -2 12 -4 2 -4 -23z"/>
<path d="M6250 5328 c14 -5 69 -21 123 -34 54 -13 108 -29 120 -35 18 -9 20
-9 10 1 -6 7 -67 28 -135 46 -123 34 -165 42 -118 22z"/>
<path d="M2600 5195 c-22 -71 -34 -136 -45 -252 -14 -145 -18 -252 -10 -228 2
6 9 74 15 151 5 78 17 161 26 185 14 39 30 109 38 164 2 11 7 32 11 48 4 15 5
27 2 27 -4 0 -20 -43 -37 -95z"/>
<path d="M3132 5210 c0 -14 2 -19 5 -12 2 6 2 18 0 25 -3 6 -5 1 -5 -13z"/>
<path d="M9483 5165 c0 -22 2 -30 4 -17 2 12 2 30 0 40 -3 9 -5 -1 -4 -23z"/>
<path d="M3121 5154 c0 -11 3 -14 6 -6 3 7 2 16 -1 19 -3 4 -6 -2 -5 -13z"/>
<path d="M7638 5163 c6 -2 18 -2 25 0 6 3 1 5 -13 5 -14 0 -19 -2 -12 -5z"/>
<path d="M7395 5149 c55 -11 85 -11 85 1 0 6 -27 10 -62 9 -60 -1 -61 -2 -23
-10z"/>
<path d="M7517 5153 c18 -2 50 -2 70 0 21 2 7 4 -32 4 -38 0 -55 -2 -38 -4z"/>
<path d="M6755 5089 c-4 -12 -28 -45 -54 -73 -46 -50 -46 -50 -8 -21 36 26 84
101 74 112 -3 2 -8 -6 -12 -18z"/>
<path d="M4218 5083 c6 -2 18 -2 25 0 6 3 1 5 -13 5 -14 0 -19 -2 -12 -5z"/>
<path d="M9473 5055 c0 -22 2 -30 4 -17 2 12 2 30 0 40 -3 9 -5 -1 -4 -23z"/>
<path d="M9063 5015 c0 -22 2 -30 4 -17 2 12 2 30 0 40 -3 9 -5 -1 -4 -23z"/>
<path d="M5565 4970 c-13 -6 -15 -9 -5 -9 8 0 22 4 30 9 18 12 2 12 -25 0z"/>
<path d="M9037 4851 c-10 -68 -16 -125 -14 -127 6 -7 40 210 35 232 -2 10 -11
-37 -21 -105z"/>
<path d="M9461 4954 c0 -11 3 -14 6 -6 3 7 2 16 -1 19 -3 4 -6 -2 -5 -13z"/>
<path d="M5465 4940 c-13 -5 -14 -9 -5 -9 8 0 24 4 35 9 13 5 14 9 5 9 -8 0
-24 -4 -35 -9z"/>
<path d="M6590 4929 c-22 -18 -22 -19 -3 -10 12 6 25 16 28 21 9 15 3 12 -25
-11z"/>
<path d="M6210 4854 c55 -18 120 -20 195 -4 74 15 66 23 -11 9 -53 -10 -127
-8 -202 6 -15 2 -7 -2 18 -11z"/>
<path d="M3056 4663 c-4 -43 -7 -85 -8 -93 -1 -8 0 -58 2 -110 3 -78 4 -62 11
90 4 102 6 186 5 188 -2 1 -6 -33 -10 -75z"/>
<path d="M9011 4694 c0 -11 3 -14 6 -6 3 7 2 16 -1 19 -3 4 -6 -2 -5 -13z"/>
<path d="M9002 4650 c0 -14 2 -19 5 -12 2 6 2 18 0 25 -3 6 -5 1 -5 -13z"/>
<path d="M2553 4540 c0 -25 2 -35 4 -22 2 12 2 32 0 45 -2 12 -4 2 -4 -23z"/>
<path d="M8971 4524 c0 -11 3 -14 6 -6 3 7 2 16 -1 19 -3 4 -6 -2 -5 -13z"/>
<path d="M4075 4514 c-11 -3 -94 -9 -185 -13 -112 -6 37 -8 460 -5 343 3 626
7 629 9 2 3 -72 5 -165 5 -93 0 -293 2 -444 4 -151 3 -284 3 -295 0z"/>
<path d="M3571 4484 c-23 -29 -27 -95 -11 -169 7 -35 8 -33 5 22 -4 69 16 120
56 140 16 8 19 13 9 14 -8 1 10 5 40 9 l55 7 -67 1 c-61 2 -68 0 -87 -24z"/>
<path d="M2565 4400 c5 -64 31 -204 34 -175 0 6 -8 64 -19 130 -17 103 -19
110 -15 45z"/>
<path d="M8946 4435 c-3 -9 -6 -22 -5 -28 0 -7 5 -1 10 12 5 13 8 26 5 28 -2
2 -6 -3 -10 -12z"/>
<path d="M5483 4310 c0 -25 2 -35 4 -22 2 12 2 32 0 45 -2 12 -4 2 -4 -23z"/>
<path d="M5042 4290 c0 -14 2 -19 5 -12 2 6 2 18 0 25 -3 6 -5 1 -5 -13z"/>
<path d="M4246 4262 c-3 -5 8 -6 25 -4 16 2 29 6 29 8 0 8 -49 4 -54 -4z"/>
<path d="M5055 3775 c0 -264 3 -430 6 -370 8 143 8 487 0 690 -4 101 -7 -18
-6 -320z"/>
<path d="M5471 4234 c0 -11 3 -14 6 -6 3 7 2 16 -1 19 -3 4 -6 -2 -5 -13z"/>
<path d="M3572 3820 c1 -273 -4 -464 -12 -534 -18 -158 -3 -230 54 -257 19 -9
19 -8 -1 7 -13 9 -23 27 -23 39 0 12 -7 42 -15 65 -12 35 -13 57 -4 129 20
163 27 769 10 906 -6 47 -9 -67 -9 -355z"/>
<path d="M2602 4190 c0 -14 2 -19 5 -12 2 6 2 18 0 25 -3 6 -5 1 -5 -13z"/>
<path d="M5458 4002 c-2 -116 1 -207 5 -203 9 9 10 401 2 409 -2 3 -6 -90 -7
-206z"/>
<path d="M3081 4174 c0 -11 3 -14 6 -6 3 7 2 16 -1 19 -3 4 -6 -2 -5 -13z"/>
<path d="M4530 4180 l-65 -7 60 0 c33 0 74 3 90 7 26 7 27 8 5 7 -14 0 -54 -3
-90 -7z"/>
<path d="M3906 4164 c-28 -27 -14 -54 14 -29 11 10 45 17 96 20 43 3 104 9
134 14 46 7 31 9 -87 10 -117 1 -144 -2 -157 -15z"/>
<path d="M2622 4100 c0 -8 4 -26 8 -40 6 -20 8 -21 8 -5 0 11 -3 29 -8 40 -5
12 -8 14 -8 5z"/>
<path d="M8816 4045 c-9 -26 -7 -32 5 -12 6 10 9 21 6 23 -2 3 -7 -2 -11 -11z"/>
<path d="M2262 4040 c0 -8 6 -31 13 -50 7 -19 13 -28 13 -20 0 8 -6 31 -13 50
-7 19 -13 28 -13 20z"/>
<path d="M4273 3960 c0 -41 2 -58 4 -37 2 20 2 54 0 75 -2 20 -4 3 -4 -38z"/>
<path d="M8796 3993 c-6 -14 -5 -15 5 -6 7 7 10 15 7 18 -3 3 -9 -2 -12 -12z"/>
<path d="M2651 3984 c0 -11 3 -14 6 -6 3 7 2 16 -1 19 -3 4 -6 -2 -5 -13z"/>
<path d="M2296 3930 c4 -14 13 -38 20 -55 11 -24 13 -25 8 -5 -4 14 -13 39
-20 55 -11 24 -13 25 -8 5z"/>
<path d="M2671 3920 c0 -18 27 -79 28 -64 1 7 -6 27 -14 45 -8 19 -14 27 -14
19z"/>
<path d="M4658 3883 c7 -3 16 -2 19 1 4 3 -2 6 -13 5 -11 0 -14 -3 -6 -6z"/>
<path d="M4588 3873 c12 -2 30 -2 40 0 9 3 -1 5 -23 4 -22 0 -30 -2 -17 -4z"/>
<path d="M4503 3863 c9 -2 25 -2 35 0 9 3 1 5 -18 5 -19 0 -27 -2 -17 -5z"/>
<path d="M4075 3851 c-77 -4 -146 -10 -152 -14 -21 -13 -15 -44 12 -61 28 -18
39 -21 30 -6 -3 6 -2 10 3 10 6 0 9 8 8 18 -1 14 10 18 64 23 88 9 213 28 219
34 2 3 -7 4 -20 3 -13 -1 -87 -4 -164 -7z"/>
<path d="M9127 3795 c-9 -19 -15 -35 -12 -35 7 0 37 61 33 66 -3 2 -12 -12
-21 -31z"/>
<path d="M2344 3800 c9 -32 39 -101 43 -97 2 3 -8 29 -22 58 -14 30 -23 47
-21 39z"/>
<path d="M4272 3609 c-2 -85 -5 -109 -19 -120 -11 -10 -61 -16 -162 -20 l-146
-6 157 0 157 1 11 26 c6 15 9 69 7 126 l-3 99 -2 -106z"/>
<path d="M4588 3693 c6 -2 18 -2 25 0 6 3 1 5 -13 5 -14 0 -19 -2 -12 -5z"/>
<path d="M6855 3689 c-33 -19 -45 -41 -44 -78 1 -20 3 -27 6 -16 2 11 6 30 8
42 6 28 50 38 107 23 23 -7 52 -14 63 -16 11 -2 28 -14 39 -26 l18 -23 -14 25
c-30 50 -142 92 -183 69z"/>
<path d="M2391 3688 c-1 -11 81 -189 86 -185 2 2 -17 46 -41 98 -25 52 -45 91
-45 87z"/>
<path d="M5402 3625 c0 -16 2 -22 5 -12 2 9 2 23 0 30 -3 6 -5 -1 -5 -18z"/>
<path d="M5718 3643 c7 -3 16 -2 19 1 4 3 -2 6 -13 5 -11 0 -14 -3 -6 -6z"/>
<path d="M5676 3624 c-9 -8 -16 -20 -16 -26 0 -6 1 -9 3 -7 1 2 11 14 21 27
22 25 16 30 -8 6z"/>
<path d="M6205 3599 c-16 -4 -90 -7 -164 -8 -74 0 -132 -3 -129 -6 2 -3 62 -6
131 -7 70 -1 127 -6 127 -10 0 -5 14 -1 31 8 30 15 55 15 104 -1 19 -6 19 -6
2 5 -30 19 -70 27 -102 19z"/>
<path d="M4691 3530 c-3 -38 -17 -43 -152 -50 l-134 -7 126 -1 c109 -2 130 1
149 16 14 11 20 25 17 37 -3 12 -5 14 -6 5z"/>
<path d="M6780 3520 c-6 -11 -8 -20 -6 -20 3 0 10 9 16 20 6 11 8 20 6 20 -3
0 -10 -9 -16 -20z"/>
<path d="M7511 3519 c-17 -16 -20 -24 -10 -35 16 -19 23 -18 58 12 34 28 85
41 104 26 18 -15 45 -17 132 -7 l80 9 -65 7 c-36 4 -113 7 -171 8 -94 1 -108
-1 -128 -20z"/>
<path d="M5738 3470 c9 -21 18 -35 20 -30 3 9 -25 70 -33 70 -2 0 4 -18 13
-40z"/>
<path d="M6729 3448 c-19 -24 -65 -77 -104 -118 l-70 -74 80 72 c85 76 110
102 100 102 -4 0 3 14 15 30 32 44 19 36 -21 -12z"/>
<path d="M3893 3445 c-8 -23 0 -25 21 -4 18 17 18 19 2 19 -9 0 -19 -7 -23
-15z"/>
<path d="M5763 3380 c0 -25 2 -35 4 -22 2 12 2 32 0 45 -2 12 -4 2 -4 -23z"/>
<path d="M6186 3386 c-16 -62 -128 -335 -144 -349 -10 -9 -43 -21 -73 -26
l-54 -9 51 -1 c42 -1 56 4 78 24 26 24 76 117 76 143 0 6 5 12 11 12 5 0 7 5
4 10 -3 6 -1 10 5 10 6 0 8 4 5 10 -3 5 8 51 26 100 17 50 29 93 26 96 -2 3
-7 -6 -11 -20z"/>
<path d="M2550 3360 c6 -11 13 -20 16 -20 2 0 0 9 -6 20 -6 11 -13 20 -16 20
-2 0 0 -9 6 -20z"/>
<path d="M7688 3260 c-52 -77 -63 -98 -48 -97 10 1 16 5 14 9 -3 4 2 8 10 8 9
0 16 3 17 8 2 25 11 44 44 100 58 97 37 81 -37 -28z"/>
<path d="M5466 3220 c7 -141 -7 -225 -52 -292 -36 -56 -22 -46 27 20 l44 57 0
157 c-1 113 -5 161 -14 170 -10 11 -11 -11 -5 -112z"/>
<path d="M5774 2535 c0 -442 4 -771 8 -735 10 84 10 1257 0 1415 -5 71 -8
-204 -8 -680z"/>
<path d="M6480 3210 c-40 -28 -66 -55 -68 -68 -2 -12 0 -22 3 -22 9 0 138 130
133 134 -1 2 -32 -18 -68 -44z"/>
<path d="M6975 3213 c-24 -13 -54 -16 -152 -14 -113 2 -121 1 -119 -16 3 -16
15 -18 122 -18 93 0 129 4 164 18 25 10 60 17 78 15 41 -5 41 -1 -3 18 -43 18
-53 17 -90 -3z"/>
<path d="M3910 3170 l-125 -6 120 -3 c259 -6 1064 5 1074 15 6 6 -925 1 -1069
-6z"/>
<path d="M8319 3147 c-36 -46 -40 -54 -24 -54 8 0 13 3 12 6 -3 11 24 52 31
47 4 -2 8 4 8 15 0 10 0 19 -1 19 0 0 -12 -15 -26 -33z"/>
<path d="M8630 3025 c-26 -27 -31 -38 -22 -47 6 -6 13 -10 14 -7 9 14 46 89
44 89 -1 0 -17 -16 -36 -35z"/>
<path d="M6670 2802 c-63 -64 -152 -145 -197 -180 -46 -36 -83 -66 -83 -68 0
-8 66 35 98 63 19 18 38 31 40 28 5 -4 58 30 77 50 6 5 22 28 37 50 16 22 52
61 82 87 29 26 56 56 59 67 3 12 4 21 4 20 -1 -1 -54 -53 -117 -117z"/>
<path d="M6040 2826 c7 -7 13 -7 20 0 6 6 3 10 -10 10 -13 0 -16 -4 -10 -10z"/>
<path d="M6236 2775 c7 -19 14 -47 14 -63 0 -33 16 -52 45 -51 17 1 16 2 -5 8
-20 6 -26 15 -31 53 -6 42 -24 88 -34 88 -2 0 3 -16 11 -35z"/>
<path d="M4260 2780 c-12 -8 -10 -10 8 -10 13 0 20 4 17 10 -7 12 -6 12 -25 0z"/>
<path d="M3955 2755 c16 -13 32 -21 35 -17 3 4 21 15 40 24 l35 17 -70 0 -70
0 30 -24z"/>
<path d="M4715 2770 c167 -5 197 -9 251 -29 55 -21 68 -23 115 -14 l54 10 -71
2 c-42 0 -95 9 -129 21 -51 17 -81 20 -234 18 l-176 -2 190 -6z"/>
<path d="M7887 2744 c-70 -25 -144 -29 -180 -9 -31 16 -38 16 -110 1 -133 -27
-338 -39 -579 -33 -233 5 -326 -4 -124 -13 156 -7 271 -6 501 4 110 5 256 9
325 10 107 2 131 5 168 24 23 12 42 25 42 27 0 3 -1 4 -2 4 -2 -1 -20 -8 -41
-15z"/>
<path d="M3465 2660 c33 -33 62 -60 64 -60 3 0 -21 27 -54 60 -33 33 -62 60
-64 60 -3 0 21 -27 54 -60z"/>
<path d="M7958 2673 c7 -3 16 -2 19 1 4 3 -2 6 -13 5 -11 0 -14 -3 -6 -6z"/>
<path d="M7856 2633 c-6 -14 -5 -15 5 -6 7 7 10 15 7 18 -3 3 -9 -2 -12 -12z"/>
<path d="M6210 2438 c-25 -16 -87 -51 -138 -76 -69 -35 -94 -53 -99 -70 -7
-30 12 -96 34 -113 15 -13 15 -12 1 11 -28 46 -30 77 -6 100 12 11 25 20 30
20 4 0 8 6 8 14 0 8 17 20 38 26 20 7 44 19 53 27 9 8 34 19 55 25 41 11 77
36 82 56 3 18 -8 14 -58 -20z"/>
<path d="M8605 2400 c-16 -11 -25 -20 -19 -20 11 0 64 39 54 40 -3 0 -18 -9
-35 -20z"/>
<path d="M3392 2385 c10 -16 318 -229 318 -220 0 6 -147 125 -155 125 -3 0
-29 24 -57 53 -28 28 -48 47 -44 40 10 -19 -17 -21 -44 -4 -13 9 -21 11 -18 6z"/>
<path d="M7820 2365 c-45 -9 -54 -13 -30 -13 19 0 58 6 85 13 63 16 30 16 -55
0z"/>
<path d="M6693 2339 c-18 -5 -40 -21 -49 -34 -14 -21 -14 -30 -4 -55 7 -17 22
-35 34 -41 18 -9 19 -8 6 3 -9 7 -16 23 -17 35 -1 18 9 27 45 44 26 12 51 21
55 20 5 -1 5 4 1 10 -5 8 2 10 25 7 17 -2 31 -1 31 4 0 4 -15 8 -34 8 -19 0
-40 2 -48 4 -7 2 -28 0 -45 -5z"/>
<path d="M7255 2340 l-180 -6 160 -1 c88 0 241 3 340 6 l180 7 -160 0 c-88 0
-241 -3 -340 -6z"/>
<path d="M8380 2323 c0 -10 4 -24 9 -31 6 -10 10 -9 14 7 3 12 16 25 29 30 21
9 19 10 -14 10 -30 1 -38 -3 -38 -16z"/>
<path d="M6888 2323 c28 -2 76 -2 105 0 28 2 5 3 -53 3 -58 0 -81 -1 -52 -3z"/>
<path d="M7308 1925 c-4 -126 -12 -250 -18 -275 -7 -26 -8 -59 -3 -80 6 -31 8
-26 14 40 26 302 29 372 21 455 -7 83 -8 71 -14 -140z"/>
<path d="M8308 2056 c-15 -18 -24 -36 -21 -40 3 -3 11 3 17 13 6 10 17 28 24
40 19 31 11 26 -20 -13z"/>
<path d="M4715 2070 c11 -5 27 -9 35 -9 9 0 8 4 -5 9 -11 5 -27 9 -35 9 -9 0
-8 -4 5 -9z"/>
<path d="M4778 2053 c7 -3 16 -2 19 1 4 3 -2 6 -13 5 -11 0 -14 -3 -6 -6z"/>
<path d="M6434 2043 c3 -6 -2 -17 -11 -23 -17 -10 -16 -11 2 -8 12 2 30 -7 43
-22 20 -22 19 -20 -3 15 -25 38 -46 63 -31 38z"/>
<path d="M4970 2010 c14 -4 39 -8 55 -8 l30 0 -30 8 c-16 4 -41 8 -55 8 l-25
0 25 -8z"/>
<path d="M6335 1995 c-29 -14 -41 -24 -30 -24 30 0 143 27 118 28 -13 1 -23 6
-23 11 0 14 -7 12 -65 -15z"/>
<path d="M5105 1989 c22 -4 54 -8 70 -7 22 0 19 3 -15 9 -60 10 -108 9 -55 -2z"/>
<path d="M7009 1932 c-30 -30 -39 -44 -21 -29 19 15 46 30 60 34 15 3 30 11
34 17 5 7 8 3 8 -8 0 -11 3 -17 6 -13 9 9 -5 45 -20 50 -7 3 -37 -19 -67 -51z"/>
<path d="M3890 1945 c-12 -19 -27 -35 -32 -35 -6 0 -8 -3 -5 -7 4 -3 15 1 25
10 10 9 33 22 52 28 31 11 32 13 15 26 -27 19 -31 17 -55 -22z"/>
<path d="M5243 1973 c15 -2 37 -2 50 0 12 2 0 4 -28 4 -27 0 -38 -2 -22 -4z"/>
<path d="M7715 1970 c-3 -5 3 -10 14 -10 10 0 28 -3 38 -6 10 -3 7 2 -7 10
-30 18 -37 19 -45 6z"/>
<path d="M5458 1963 c6 -2 18 -2 25 0 6 3 1 5 -13 5 -14 0 -19 -2 -12 -5z"/>
<path d="M7798 1943 c7 -3 16 -2 19 1 4 3 -2 6 -13 5 -11 0 -14 -3 -6 -6z"/>
<path d="M7830 1937 c0 -3 15 -10 32 -16 18 -6 28 -7 23 -2 -12 10 -55 25 -55
18z"/>
<path d="M4010 1925 c0 -8 150 -78 156 -72 2 2 -28 19 -68 37 -40 19 -76 36
-80 38 -5 2 -8 1 -8 -3z"/>
<path d="M6305 1919 c-105 -19 -95 -6 -94 -122 2 -102 2 -102 10 -37 4 36 11
75 14 87 6 27 44 48 102 58 24 4 45 11 49 16 6 11 -12 10 -81 -2z"/>
<path d="M7967 1869 c7 -7 15 -10 18 -7 3 3 -2 9 -12 12 -14 6 -15 5 -6 -5z"/>
<path d="M6885 1829 c-66 -52 -143 -92 -235 -123 -60 -20 -76 -29 -78 -47 -4
-21 -3 -21 23 4 15 13 55 33 88 43 60 18 217 113 246 147 19 24 12 20 -44 -24z"/>
<path d="M7825 1830 c21 -22 41 -40 44 -40 3 0 -13 18 -34 40 -21 22 -41 40
-44 40 -3 0 13 -18 34 -40z"/>
<path d="M8150 1767 c0 -2 15 -14 33 -27 20 -15 27 -17 18 -6 -13 16 -51 41
-51 33z"/>
<path d="M5762 1650 c-1 -64 3 -95 17 -126 20 -44 64 -84 90 -83 9 0 4 5 -12
11 -15 5 -24 14 -21 19 3 6 -9 24 -27 41 -31 30 -33 36 -39 127 l-7 96 -1 -85z"/>
<path d="M4750 1660 c8 -5 24 -10 34 -10 26 0 18 6 -19 14 -22 5 -26 4 -15 -4z"/>
<path d="M4818 1643 c6 -2 18 -2 25 0 6 3 1 5 -13 5 -14 0 -19 -2 -12 -5z"/>
<path d="M7963 1624 c9 -17 23 -37 33 -45 16 -13 16 -12 1 17 -9 17 -23 37
-33 45 -16 13 -16 12 -1 -17z"/>
<path d="M4889 1629 c67 -27 601 -69 601 -48 0 4 -78 9 -172 12 -95 3 -231 15
-303 26 -145 23 -161 24 -126 10z"/>
<path d="M6223 1580 c0 -30 2 -43 4 -27 2 15 2 39 0 55 -2 15 -4 2 -4 -28z"/>
<path d="M7300 1521 c0 -6 4 -13 10 -16 6 -3 7 1 4 9 -7 18 -14 21 -14 7z"/>
<path d="M7335 1470 c10 -11 20 -20 23 -20 3 0 -3 9 -13 20 -10 11 -20 20 -23
20 -3 0 3 -9 13 -20z"/>
<path d="M7737 1413 c-2 -10 -8 -27 -12 -38 -8 -19 -6 -18 17 3 13 12 29 19
34 15 5 -5 0 2 -10 15 -23 27 -22 26 -29 5z"/>
<path d="M6862 1310 c-30 -11 -86 -23 -125 -28 -66 -9 -69 -10 -27 -13 80 -5
78 -6 200 49 40 17 10 12 -48 -8z"/>
<path d="M6110 1264 c-28 -29 -35 -40 -19 -30 21 13 76 76 66 76 -1 0 -23 -21
-47 -46z"/>
<path d="M6618 1283 c6 -2 18 -2 25 0 6 3 1 5 -13 5 -14 0 -19 -2 -12 -5z"/>
<path d="M8207 1283 c-4 -3 -49 -10 -99 -14 l-93 -7 88 2 c48 0 88 -3 90 -7 1
-5 14 0 27 12 19 15 21 20 9 21 -9 0 -19 -3 -22 -7z"/>
<path d="M7958 1273 c7 -3 16 -2 19 1 4 3 -2 6 -13 5 -11 0 -14 -3 -6 -6z"/>
<path d="M5810 1159 c34 -10 112 -10 126 -1 7 4 -25 7 -70 7 -47 1 -71 -2 -56
-6z"/>
<path d="M7378 1153 c12 -2 32 -2 45 0 12 2 2 4 -23 4 -25 0 -35 -2 -22 -4z"/>
</g>
</svg>